<svg width="1547" height="654" viewBox="0 0 1547 654" fill="none" xmlns="http://www.w3.org/2000/svg">
<g clip-path="url(#clip0_24_2)">
<mask id="mask0_24_2" style="mask-type:luminance" maskUnits="userSpaceOnUse" x="0" y="0" width="1547" height="654">
<path d="M0 0H1546.82V653.633H0V0Z" fill="white"/>
</mask>
<g mask="url(#mask0_24_2)">
<path d="M317.334 280.381C315.473 288.663 312.178 296.821 307.447 304.845C302.714 312.877 297.091 320.019 290.587 326.268C284.079 332.525 276.935 337.595 269.165 341.481C261.387 345.371 253.53 347.312 245.587 347.312C246.937 342.243 248.755 336.243 251.037 329.312C253.319 322.384 255.81 315.203 258.517 307.761C261.217 300.327 264.05 293.056 267.01 285.959C269.965 278.86 272.754 272.521 275.377 266.944C277.994 261.365 280.359 256.928 282.475 253.635C284.586 250.337 286.234 248.86 287.418 249.197C286.742 247.337 284.841 245.355 281.714 243.237C278.585 241.128 275.755 239.395 273.222 238.041C276.43 237.533 279.725 237.281 283.107 237.281C291.387 237.281 298.067 238.508 303.137 240.957C308.209 243.408 312.011 246.621 314.545 250.591C317.081 254.564 318.477 259.127 318.73 264.281C318.982 269.439 318.517 274.804 317.334 280.381ZM330.771 254.901C327.73 247.719 323.63 241.381 318.477 235.885C313.318 230.396 307.233 226.041 300.222 222.829C293.207 219.621 285.729 218.012 277.783 218.012C272.543 218.012 267.01 218.689 261.177 220.04C255.347 221.396 249.809 223 244.571 224.857C239.331 226.72 234.725 228.704 230.754 230.816C226.782 232.931 224.035 234.832 222.514 236.52C220.994 238.381 220.273 240.791 220.359 243.745C220.443 246.705 220.867 249.62 221.629 252.492C222.387 255.369 223.275 257.903 224.289 260.099C225.305 262.297 225.977 263.48 226.319 263.647C226.654 261.113 227.965 258.621 230.247 256.168C232.529 253.72 235.446 251.396 238.994 249.197C242.543 247.003 246.639 245.012 251.291 243.237C255.937 241.463 260.882 240.069 266.122 239.056C264.43 241.425 262.359 245.228 259.91 250.464C257.459 255.704 254.878 261.663 252.178 268.339C249.471 275.017 246.81 281.989 244.191 289.253C241.569 296.524 239.205 303.412 237.093 309.917C234.978 316.424 233.29 322.131 232.023 327.029C230.754 331.935 230.122 335.313 230.122 337.171C230.122 338.184 230.287 339.369 230.627 340.72C230.965 342.076 231.389 343.509 231.897 345.031C226.991 343.172 223.441 340.341 221.247 336.539C219.049 332.733 218.625 328.551 219.981 323.988C216.937 327.877 215.327 332.143 215.163 336.791C214.993 341.441 216.178 345.835 218.711 349.973C221.247 354.119 225.134 357.579 230.374 360.368C235.613 363.159 242.203 364.552 250.149 364.552C260.798 364.552 271.231 361.975 281.459 356.82C291.685 351.667 300.813 344.947 308.841 336.664C316.869 328.385 323.293 319.044 328.11 308.648C332.926 298.255 335.335 287.903 335.335 277.592C335.335 269.651 333.814 262.087 330.771 254.901Z" fill="white"/>
<path d="M374.629 233.731C375.809 234.917 376.994 235.93 378.178 236.773C379.359 237.621 380.459 238.042 381.473 238.042C382.147 234.998 383.162 231.83 384.515 228.533C385.866 225.238 387.343 222.113 388.951 219.153C390.555 216.198 392.162 213.575 393.769 211.295C395.374 209.011 396.686 207.453 397.699 206.605C397.191 205.93 396.389 205.127 395.29 204.195C394.19 203.267 392.965 202.381 391.614 201.533C390.258 200.69 388.865 199.973 387.433 199.379C385.993 198.789 384.599 198.491 383.247 198.491C382.234 198.491 381.005 199.253 379.571 200.773C378.134 202.294 376.738 204.366 375.39 206.985C374.034 209.606 372.894 212.649 371.966 216.111C371.034 219.577 370.571 223.171 370.571 226.887C370.571 227.734 370.953 228.789 371.714 230.055C372.473 231.322 373.443 232.551 374.629 233.731Z" fill="white"/>
<path d="M564.513 233.731C565.693 234.917 566.878 235.93 568.062 236.773C569.244 237.621 570.344 238.042 571.357 238.042C572.032 234.998 573.046 231.83 574.4 228.533C575.75 225.238 577.228 222.113 578.836 219.153C580.44 216.198 582.046 213.575 583.653 211.295C585.258 209.011 586.57 207.453 587.584 206.605C587.076 205.93 586.273 205.127 585.174 204.195C584.074 203.267 582.849 202.381 581.498 201.533C580.142 200.69 578.749 199.973 577.317 199.379C575.877 198.789 574.484 198.491 573.132 198.491C572.118 198.491 570.889 199.253 569.456 200.773C568.018 202.294 566.622 204.366 565.274 206.985C563.918 209.606 562.778 212.649 561.85 216.111C560.918 219.577 560.456 223.171 560.456 226.887C560.456 227.734 560.837 228.789 561.598 230.055C562.357 231.322 563.328 232.551 564.513 233.731Z" fill="white"/>
<path d="M739.697 233.731C740.877 234.917 742.062 235.93 743.246 236.773C744.428 237.621 745.528 238.042 746.541 238.042C747.216 234.998 748.23 231.83 749.584 228.533C750.934 225.238 752.412 222.113 754.02 219.153C755.624 216.198 757.23 213.575 758.837 211.295C760.444 209.011 761.754 207.453 762.77 206.605C762.26 205.93 761.457 205.127 760.358 204.195C759.258 203.267 758.034 202.381 756.682 201.533C755.326 200.69 753.934 199.973 752.501 199.379C751.061 198.789 749.668 198.491 748.316 198.491C747.302 198.491 746.073 199.253 744.64 200.773C743.202 202.294 741.806 204.366 740.458 206.985C739.102 209.606 737.962 212.649 737.034 216.111C736.102 219.577 735.64 223.171 735.64 226.887C735.64 227.734 736.021 228.789 736.782 230.055C737.541 231.322 738.513 232.551 739.697 233.731Z" fill="white"/>
<path d="M975.085 283.676C974.326 286.045 973.523 288.492 972.679 291.028C969.13 298.299 965.705 305.143 962.413 311.565C959.115 317.991 956.111 323.568 953.409 328.299C950.702 333.031 948.466 336.791 946.691 339.58C944.917 342.369 943.775 343.761 943.27 343.761C943.097 342.581 943.31 340.383 943.901 337.171C944.495 333.963 945.378 330.2 946.562 325.889C947.743 321.579 949.141 316.977 950.747 312.072C952.353 307.171 954.127 302.399 956.071 297.748C958.015 293.1 960.003 288.875 962.03 285.072C964.058 281.269 966.086 278.352 968.114 276.324C969.467 274.972 970.905 274.256 972.422 274.169C973.945 274.085 975.635 274.972 977.494 276.832C976.646 279.031 975.847 281.311 975.085 283.676ZM841.099 315.495C839.073 321.159 836.955 326.268 834.763 330.832C832.563 335.396 830.326 339.072 828.046 341.86C825.761 344.649 823.773 346.045 822.086 346.045C820.397 346.045 819.553 344.017 819.553 339.959C819.553 336.409 820.183 331.681 821.453 325.763C822.721 319.848 824.323 313.763 826.271 307.508C828.21 301.259 830.411 295.384 832.861 289.888C835.31 284.397 837.719 280.215 840.089 277.337C839.578 279.873 839.113 282.325 838.69 284.689C838.269 287.06 838.061 289.172 838.061 291.028C838.061 295.592 839.325 298.128 841.863 298.633H843.509C844.269 298.633 845.071 298.552 845.918 298.381C844.734 304.129 843.127 309.833 841.099 315.495ZM779.747 282.283C779.241 284.057 778.735 285.875 778.23 287.733C774.679 295.339 771.13 302.565 767.581 309.409C764.03 316.256 760.821 322.213 757.947 327.284C755.071 332.353 752.662 336.372 750.721 339.327C748.778 342.284 747.553 343.761 747.045 343.761C746.874 342.581 747.045 340.383 747.553 337.171C748.059 333.963 748.905 330.16 750.089 325.763C751.269 321.369 752.662 316.721 754.271 311.819C755.875 306.917 757.65 302.144 759.595 297.493C761.537 292.848 763.565 288.664 765.681 284.945C767.793 281.229 769.861 278.352 771.893 276.324C773.242 274.804 774.679 274.043 776.198 274.043C777.723 274.043 779.498 274.972 781.522 276.832C780.847 278.693 780.262 280.508 779.747 282.283ZM601.653 310.549C599.878 315.113 598.058 319.468 596.201 323.608C594.338 327.751 592.398 331.511 590.369 334.889C588.341 338.273 586.395 340.891 584.538 342.748C581.497 346.132 577.775 346.132 573.383 342.748C578.619 330.073 584.07 318.497 589.737 308.016C595.395 297.537 600.17 289.172 604.059 282.915C603.889 285.792 603.973 288.537 604.313 291.155C604.65 293.777 605.329 295.763 606.342 297.113C604.987 301.511 603.427 305.987 601.653 310.549ZM477.427 276.959C475.313 281.437 473.03 286.339 470.583 291.663C468.73 295.688 466.877 299.905 465.025 304.219C464.969 304.309 464.937 304.375 464.881 304.467C462.682 308.016 460.146 311.819 457.274 315.875C454.398 319.932 451.357 324.032 448.146 328.172C444.934 332.315 441.891 335.904 439.019 338.945C440.541 332.696 442.401 325.763 444.598 318.157C446.793 310.549 449.161 302.904 451.695 295.212C454.231 287.523 456.807 279.96 459.43 272.521C462.047 265.087 464.539 258.324 466.909 252.239C471.77 252.239 476.591 252.329 481.386 252.473C480.559 255.073 480.035 257.624 479.963 260.099C479.877 262.975 480.763 265.003 482.625 266.183C481.27 268.889 479.539 272.481 477.427 276.959ZM391.613 344.523C390.765 345.371 389.203 345.499 386.922 344.904C384.639 344.315 382.103 343.003 379.314 340.973C376.526 338.945 373.737 336.243 370.949 332.863C370.166 331.915 369.53 330.789 368.834 329.736C371.517 324.189 373.75 318.98 375.517 314.1C376.679 310.888 377.522 308.036 378.105 305.475C378.338 306.195 378.537 306.908 378.809 307.635C380.921 313.301 383.157 318.623 385.526 323.608C387.891 328.596 389.837 332.948 391.357 336.665C392.879 340.383 392.963 343.003 391.613 344.523ZM1008.68 296.1C1007.83 298.299 1006.44 301.169 1004.49 304.719C1002.55 308.269 1000.35 311.989 997.905 315.875C995.451 319.765 992.789 323.651 989.918 327.537C987.043 331.427 984.341 334.889 981.807 337.932C983.155 329.145 984.975 320.82 987.255 312.959C989.537 305.099 991.817 298.001 994.102 291.663C996.383 285.324 998.579 280 1000.69 275.691C1002.8 271.38 1004.45 268.299 1005.63 266.437C1005.13 265.763 1004.16 264.916 1002.72 263.901C1001.28 262.888 999.679 262 997.905 261.24C996.13 260.479 994.266 259.807 992.327 259.212C990.379 258.621 988.649 258.324 987.127 258.324C986.453 258.324 985.61 259.128 984.594 260.732C983.582 262.34 982.477 264.579 981.297 267.452C978.927 265.592 976.482 263.861 973.945 262.253C971.411 260.649 968.705 259.424 965.833 258.577C962.115 257.563 958.481 258.577 954.931 261.619C951.381 264.663 948.041 268.889 944.917 274.296C941.789 279.707 938.957 285.919 936.423 292.929C934.395 298.545 932.747 304.091 931.313 309.597C929.899 311.976 928.415 314.424 926.79 317.015C924.083 321.325 921.213 325.636 918.174 329.944C915.13 334.255 912.254 338.019 909.553 341.228C911.074 333.621 913.013 326.187 915.382 318.916C917.747 311.652 919.949 305.313 921.977 299.903C922.819 297.367 923.706 295.128 924.638 293.185C925.562 291.244 925.819 289.087 925.397 286.72C924.971 284.355 923.534 281.521 921.089 278.225C918.635 274.931 914.451 270.664 908.537 265.421C907.182 264.241 906.509 262.848 906.509 261.24C906.509 259.636 906.89 258.069 907.649 256.549C908.411 255.028 909.423 253.549 910.693 252.112C911.962 250.679 913.186 249.536 914.366 248.689C913.519 247.845 912.378 246.832 910.946 245.647C909.507 244.467 907.986 243.327 906.383 242.224C904.773 241.128 903.171 240.24 901.565 239.561C899.959 238.889 898.65 238.636 897.634 238.803C895.775 239.143 893.915 240.537 892.057 242.985C890.197 245.436 888.719 248.183 887.619 251.225C886.519 254.267 885.929 257.227 885.849 260.099C885.759 262.975 886.647 265.003 888.506 266.183C887.153 268.889 885.423 272.481 883.31 276.959C882.842 277.951 882.334 279.041 881.849 280.075C879.055 280.873 876.585 281.568 874.441 282.156C870.133 283.339 865.775 284.1 861.382 284.437L860.623 278.607C859.439 276.748 858.125 274.675 856.693 272.395C855.254 270.113 853.689 268.001 852.002 266.056C850.311 264.115 848.581 262.507 846.806 261.24C845.031 259.971 843.211 259.339 841.353 259.339C837.634 259.339 834.041 260.605 830.579 263.141C827.114 265.676 823.862 269.06 820.818 273.281C817.778 277.508 814.943 282.325 812.325 287.733C809.702 293.145 807.51 298.679 805.735 304.34C805.521 305.024 805.365 305.7 805.162 306.383C804.207 307.948 803.239 309.525 802.19 311.184C799.563 315.328 796.697 319.511 793.565 323.735C790.441 327.961 787.441 331.764 784.566 335.143C786.093 328.723 787.991 321.623 790.273 313.847C792.553 306.075 795.002 298.172 797.629 290.141C800.247 282.116 802.909 274.256 805.607 266.564C808.314 258.875 810.931 251.945 813.47 245.773C816.007 239.607 818.289 234.452 820.311 230.308C822.343 226.168 823.95 223.591 825.13 222.576C824.793 221.901 823.906 221.099 822.469 220.167C821.03 219.24 819.425 218.309 817.65 217.379C815.874 216.451 814.065 215.692 812.201 215.097C810.337 214.507 808.739 214.209 807.382 214.209C806.707 214.209 805.607 215.603 804.09 218.392C802.571 221.181 800.753 224.985 798.641 229.803C796.519 234.619 794.283 240.24 791.922 246.661C789.553 253.087 787.103 259.933 784.566 267.196C782.374 265.34 780.005 263.647 777.466 262.127C774.937 260.605 772.31 259.424 769.613 258.577C765.894 257.563 762.258 258.577 758.709 261.619C755.158 264.663 751.819 268.889 748.694 274.296C745.563 279.707 742.737 285.919 740.201 292.929C738.082 298.791 736.365 304.577 734.895 310.32C733.659 312.441 732.354 314.623 730.949 316.888C728.327 321.115 725.498 325.383 722.457 329.692C719.415 334.003 716.538 337.765 713.838 340.973C715.523 332.017 717.595 323.441 720.047 315.24C722.497 307.044 724.993 299.609 727.529 292.929C730.062 286.256 732.427 280.635 734.626 276.071C736.819 271.507 738.513 268.299 739.697 266.437C739.189 265.763 738.302 264.916 737.035 263.901C735.766 262.888 734.286 262 732.598 261.24C730.907 260.479 729.133 259.807 727.273 259.212C725.411 258.621 723.723 258.324 722.203 258.324C721.357 258.324 720.175 259.844 718.654 262.888C717.131 265.929 715.397 269.859 713.455 274.675C711.513 279.493 709.526 285.032 707.499 291.281C705.99 295.939 704.603 300.625 703.281 305.328C701.503 308.589 699.466 312.049 697.105 315.748C694.569 319.721 691.906 323.651 689.118 327.537C686.329 331.427 683.581 334.889 680.878 337.932C682.229 329.312 683.959 321.199 686.077 313.593C688.186 305.987 690.385 299.228 692.667 293.312C694.949 287.396 697.061 282.369 699.006 278.225C700.947 274.085 702.511 271.088 703.697 269.227C703.189 268.552 702.214 267.704 700.781 266.691C699.343 265.676 697.737 264.789 695.962 264.028C694.19 263.267 692.326 262.595 690.385 262C688.441 261.411 686.709 261.113 685.189 261.113C683.833 261.113 681.891 264.028 679.357 269.859C676.822 275.691 674.286 282.748 671.751 291.028C668.201 298.299 664.779 305.143 661.483 311.565C658.186 317.991 655.185 323.568 652.482 328.299C649.778 333.031 647.539 336.791 645.765 339.58C643.99 342.369 642.849 343.761 642.341 343.761C642.17 342.581 642.426 340.215 643.102 336.665C643.777 333.115 644.833 328.893 646.273 323.988C647.706 319.087 649.314 313.847 651.089 308.269C652.863 302.692 654.765 297.2 656.793 291.789C658.769 286.52 660.705 281.707 662.599 277.319C662.994 276.744 663.342 276.159 663.639 275.563C663.539 275.592 663.443 275.615 663.342 275.644C665.061 271.809 666.685 268.709 668.201 266.437C667.862 265.929 667.101 265.213 665.921 264.281C664.735 263.353 663.258 262.424 661.483 261.492C659.709 260.565 657.847 259.807 655.906 259.212C653.959 258.621 652.23 258.324 650.707 258.324C649.859 258.324 648.553 260.059 646.778 263.52C645.003 266.988 643.102 271.425 641.074 276.832C640.535 278.272 639.983 279.885 639.438 281.421C635.573 282.069 631.781 282.551 628.145 282.663C628.482 278.44 628.399 275.309 627.891 273.281C627.553 271.931 626.707 270.409 625.355 268.719C624.002 267.029 622.441 265.465 620.666 264.028C618.891 262.595 617.155 261.365 615.47 260.352C613.777 259.339 612.51 258.831 611.665 258.831C609.298 258.831 606.045 261.537 601.905 266.944C597.761 272.355 593.413 279.536 588.849 288.492C591.549 280.551 594.255 272.819 596.962 265.295C599.662 257.776 602.285 250.972 604.821 244.887C607.357 238.803 609.595 233.776 611.538 229.803C613.479 225.833 615.046 223.337 616.229 222.323C615.889 221.649 615.002 220.845 613.569 219.913C612.129 218.987 610.525 218.057 608.75 217.125C606.975 216.197 605.158 215.437 603.298 214.844C601.437 214.252 599.833 213.957 598.482 213.957C597.634 213.957 596.113 216.156 593.918 220.548C591.719 224.945 589.183 230.776 586.313 238.041C583.438 245.309 580.354 253.505 577.059 262.633C573.762 271.76 570.677 281.103 567.806 290.649C566.75 294.153 565.779 297.587 564.805 301.023C564.197 302.237 563.526 303.531 562.738 304.972C560.71 308.693 558.383 312.667 555.765 316.888C553.143 321.115 550.314 325.383 547.273 329.692C544.231 334.003 541.354 337.765 538.654 340.973C540.339 332.017 542.411 323.441 544.863 315.24C547.313 307.044 549.809 299.609 552.345 292.929C554.878 286.256 557.243 280.635 559.442 276.071C561.635 271.507 563.329 268.299 564.513 266.437C564.005 265.763 563.118 264.916 561.851 263.901C560.582 262.888 559.102 262 557.414 261.24C555.723 260.479 553.949 259.807 552.089 259.212C550.227 258.621 548.539 258.324 547.019 258.324C546.173 258.324 544.991 259.844 543.47 262.888C541.947 265.929 540.213 269.859 538.271 274.675C536.329 279.493 534.342 285.032 532.315 291.281C530.869 295.744 529.538 300.233 528.263 304.737C528.217 304.819 528.179 304.889 528.133 304.972C526.018 308.693 523.609 312.707 520.907 317.015C518.202 321.325 515.33 325.636 512.287 329.944C509.246 334.255 506.369 338.019 503.669 341.228C505.189 333.621 507.13 326.187 509.499 318.916C511.863 311.652 514.062 305.313 516.09 299.903C516.935 297.367 517.823 295.128 518.753 293.185C519.681 291.244 519.933 289.087 519.514 286.72C519.09 284.355 517.653 281.521 515.203 278.225C512.751 274.931 508.567 270.664 502.654 265.421C501.299 264.241 500.625 262.848 500.625 261.24C500.625 259.636 501.006 258.069 501.767 256.549C502.294 255.495 502.989 254.468 503.759 253.453C505.234 253.583 506.683 253.717 507.979 253.887C511.19 254.311 513.641 254.775 515.331 255.28C515.498 254.775 515.458 253.887 515.205 252.62C514.953 251.351 514.57 250.044 514.065 248.689C513.557 247.337 512.925 246.071 512.163 244.887C511.402 243.705 510.599 242.945 509.754 242.605C508.033 241.888 504.367 241.461 498.989 241.292C497.885 240.629 496.783 240.028 495.682 239.561C494.073 238.889 492.766 238.636 491.753 238.803C490.421 239.045 489.09 239.853 487.761 241.176C482.754 241.181 477.358 241.231 471.473 241.336C472.993 237.957 474.387 235.213 475.654 233.097C476.923 230.987 477.977 229.509 478.825 228.661C478.483 227.987 477.595 227.181 476.162 226.252C474.725 225.325 473.118 224.393 471.346 223.464C469.571 222.536 467.751 221.775 465.895 221.181C464.031 220.591 462.427 220.293 461.077 220.293C460.229 220.293 458.795 222.283 456.767 226.252C454.739 230.225 452.457 235.507 449.921 242.097C438.933 242.439 430.737 242.819 425.33 243.237C419.919 243.661 415.529 243.959 412.145 244.125C411.473 244.973 412.19 246.408 414.302 248.436C416.415 250.464 419.411 251.648 423.301 251.985C424.481 252.156 425.583 252.283 426.597 252.365C427.611 252.453 428.878 252.492 430.399 252.492H436.23H445.866C443.33 259.253 440.707 266.607 438.005 274.549C437.498 276.037 437.075 277.545 436.581 279.037C435.754 279.273 434.945 279.511 434.078 279.747C431.29 280.508 428.457 281.229 425.586 281.901C426.429 279.368 426.853 277.592 426.853 276.579C426.853 275.228 425.878 273.495 423.937 271.38C421.991 269.268 419.626 267.196 416.838 265.168C414.049 263.141 411.215 261.411 408.345 259.971C405.47 258.537 403.186 257.816 401.498 257.816C399.807 257.816 397.569 258.537 394.781 259.971C391.991 261.411 389.243 263.52 386.541 266.309C383.837 269.097 381.426 272.565 379.314 276.705C377.201 280.847 376.059 285.704 375.894 291.281C375.821 293.503 375.999 295.769 376.337 298.065C375.486 299.968 374.333 302.264 372.854 304.972C370.826 308.693 368.499 312.667 365.881 316.888C363.258 321.115 360.43 325.383 357.389 329.692C354.346 334.003 351.469 337.765 348.769 340.973C350.455 332.017 352.527 323.441 354.979 315.24C357.429 307.044 359.925 299.609 362.459 292.929C364.994 286.256 367.358 280.635 369.557 276.071C371.751 271.507 373.445 268.299 374.629 266.437C374.121 265.763 373.234 264.916 371.966 263.901C370.698 262.888 369.218 262 367.53 261.24C365.839 260.479 364.063 259.807 362.205 259.212C360.343 258.621 358.655 258.324 357.135 258.324C356.287 258.324 355.107 259.844 353.586 262.888C352.063 265.929 350.329 269.859 348.387 274.675C346.443 279.493 344.458 285.032 342.43 291.281C340.403 297.537 338.539 303.832 336.853 310.171C335.161 316.509 333.767 322.636 332.669 328.552C331.569 334.471 330.934 339.624 330.767 344.017C330.767 345.371 331.315 347.059 332.415 349.087C333.511 351.115 334.863 353.06 336.471 354.919C338.075 356.78 339.769 358.384 341.543 359.736C343.318 361.089 344.878 361.764 346.233 361.764C347.755 361.764 349.823 360.201 352.445 357.073C355.063 353.948 357.767 350.019 360.557 345.284C362.037 342.773 363.503 340.123 364.961 337.372C365.567 339.993 366.303 342.593 367.273 345.157C368.961 349.637 371.114 353.524 373.737 356.82C376.357 360.115 379.273 361.764 382.485 361.764C386.707 361.764 390.554 360.709 394.019 358.596C397.482 356.483 400.442 353.948 402.894 350.988C405.341 348.033 407.286 344.991 408.725 341.86C410.159 338.737 410.963 336.156 411.134 334.129C411.299 331.256 410.499 327.961 408.725 324.24C406.949 320.524 405.006 316.761 402.894 312.959C400.777 309.156 398.921 305.353 397.317 301.551C395.707 297.748 395.162 294.241 395.667 291.028C396.005 288.664 396.766 286.383 397.951 284.184C399.131 281.989 400.525 280.088 402.133 278.48C403.737 276.873 405.341 275.563 406.949 274.549C408.555 273.535 410.033 273.029 411.386 273.029C411.723 274.043 411.934 275.607 412.021 277.719C412.103 279.833 411.806 282.243 411.134 284.945C408.258 285.451 405.975 285.704 404.287 285.704C403.781 286.212 403.402 287.523 403.146 289.635C402.894 291.749 402.934 294.072 403.273 296.605C403.61 299.141 404.161 301.511 404.922 303.705C405.682 305.904 406.823 307.341 408.345 308.016C410.033 308.016 411.894 306.707 413.922 304.085C415.95 301.467 417.891 298.467 419.753 295.087C424.774 293.175 429.414 290.817 433.717 288.059C432.619 291.544 431.431 295.008 430.399 298.507C428.03 306.539 425.962 314.397 424.187 322.087C422.413 329.779 421.186 336.665 420.511 342.748C420.343 344.441 420.893 346.384 422.159 348.581C423.429 350.78 424.906 352.889 426.597 354.919C428.286 356.947 429.975 358.596 431.666 359.863C433.355 361.129 434.539 361.764 435.217 361.764C436.567 361.764 438.595 360.16 441.302 356.947C444.005 353.737 446.919 349.765 450.047 345.031C450.121 344.92 450.193 344.795 450.265 344.683C450.053 345.813 449.919 346.805 449.919 347.567C449.919 349.087 450.427 350.695 451.441 352.384C452.454 354.073 453.723 355.596 455.243 356.947C456.766 358.3 458.325 359.443 459.934 360.368C461.538 361.3 462.933 361.764 464.118 361.764C463.439 359.907 463.439 356.989 464.118 353.017C464.79 349.047 465.933 344.396 467.541 339.072C469.145 333.749 471.046 328.043 473.245 321.96C475.439 315.875 477.682 309.877 479.963 303.959C482.243 298.044 484.526 292.424 486.807 287.099C489.09 281.775 491.158 277.256 493.019 273.535C495.385 275.396 497.33 277.297 498.851 279.239C500.371 281.184 501.299 282.833 501.641 284.184C499.611 289.761 497.538 295.384 495.429 301.043C493.313 306.707 491.371 312.159 489.597 317.396C487.823 322.636 486.302 327.58 485.034 332.228C483.766 336.877 483.131 340.973 483.131 344.523C483.131 345.537 483.806 347.019 485.161 348.96C486.513 350.905 488.117 352.852 489.978 354.791C491.834 356.736 493.821 358.384 495.934 359.736C498.046 361.089 499.777 361.764 501.133 361.764C502.654 361.764 504.722 360.201 507.345 357.073C509.962 353.948 512.669 350.019 515.458 345.284C517.561 341.717 519.63 337.829 521.685 333.78C521.122 337.549 520.767 340.979 520.651 344.017C520.651 345.371 521.199 347.059 522.301 349.087C523.397 351.115 524.747 353.06 526.355 354.919C527.959 356.78 529.653 358.384 531.427 359.736C533.202 361.089 534.762 361.764 536.118 361.764C537.639 361.764 539.707 360.201 542.33 357.073C544.947 353.948 547.651 350.019 550.441 345.284C552.583 341.649 554.694 337.683 556.787 333.547C556.213 336.685 555.722 339.7 555.382 342.495C555.213 344.188 555.763 346.132 557.03 348.325C558.299 350.524 559.777 352.596 561.467 354.537C563.155 356.483 564.846 358.088 566.537 359.355C568.225 360.623 569.41 361.256 570.086 361.256C570.086 359.061 570.342 356.272 570.847 352.889C573.042 354.583 575.285 356.101 577.565 357.453C579.849 358.808 582.258 359.823 584.791 360.497C589.015 361.681 593.242 360.331 597.469 356.439C601.69 352.555 605.707 347.312 609.51 340.72C613.313 334.129 616.65 326.776 619.525 318.663C622.398 310.549 624.597 302.863 626.117 295.592C629.191 294.895 632.339 294.015 635.534 293.025C635.309 293.733 635.089 294.363 634.862 295.087C632.749 301.848 630.933 308.521 629.411 315.113C627.891 321.707 626.789 327.835 626.117 333.495C625.438 339.16 625.522 343.761 626.37 347.312C626.875 349.848 627.847 352.047 629.285 353.903C630.718 355.767 632.285 357.287 633.975 358.467C635.663 359.652 637.271 360.497 638.791 361.003C640.314 361.511 641.494 361.764 642.341 361.764C643.863 361.764 645.511 360.709 647.286 358.596C649.061 356.483 650.874 353.695 652.738 350.227C654.594 346.765 656.451 342.919 658.315 338.692C660.171 334.471 661.947 330.241 663.638 326.016C663.298 328.552 663.005 330.961 662.75 333.241C662.497 335.524 662.37 337.679 662.37 339.707C662.37 341.061 662.961 342.748 664.146 344.779C665.326 346.805 666.763 348.749 668.457 350.608C670.142 352.469 671.917 354.073 673.778 355.425C675.638 356.78 677.329 357.453 678.85 357.453C680.373 357.453 682.355 355.975 684.807 353.017C687.257 350.06 689.834 346.384 692.541 341.989C693.982 339.647 695.381 337.18 696.75 334.621C696.262 338.053 695.942 341.208 695.835 344.017C695.835 345.371 696.383 347.059 697.485 349.087C698.581 351.115 699.931 353.06 701.539 354.919C703.143 356.78 704.837 358.384 706.611 359.736C708.386 361.089 709.946 361.764 711.302 361.764C712.823 361.764 714.891 360.201 717.514 357.073C720.131 353.948 722.835 350.019 725.625 345.284C727.247 342.531 728.853 339.589 730.447 336.548C730.201 340.991 730.395 344.605 731.074 347.312C731.579 349.848 732.551 352.047 733.989 353.903C735.422 355.767 736.989 357.287 738.679 358.467C740.367 359.652 741.975 360.497 743.495 361.003C745.018 361.511 746.198 361.764 747.045 361.764C748.567 361.764 750.215 360.709 751.99 358.596C753.765 356.483 755.578 353.695 757.442 350.227C759.298 346.765 761.155 342.919 763.019 338.692C764.874 334.471 766.649 330.16 768.343 325.763C767.838 327.961 767.457 330.073 767.199 332.101C766.95 334.129 766.649 336.075 766.311 337.932C766.143 339.624 766.693 341.568 767.962 343.761C769.231 345.96 770.749 348.073 772.523 350.1C774.298 352.131 776.029 353.777 777.723 355.045C779.41 356.312 780.599 356.947 781.274 356.947C782.791 356.947 784.859 355.343 787.486 352.131C790.103 348.92 792.846 344.947 795.721 340.215C797.254 337.693 798.758 335.016 800.242 332.228C800.162 333.548 800.03 334.931 800.03 336.156C800.03 340.553 800.957 344.315 802.815 347.439C804.675 350.568 806.915 353.231 809.538 355.425C812.157 357.624 814.863 359.228 817.65 360.241C820.441 361.256 822.677 361.764 824.367 361.764C828.423 361.764 832.483 359.696 836.538 355.552C840.594 351.412 844.307 346.089 847.694 339.58C851.07 333.075 853.946 325.933 856.315 318.157C858.679 310.384 860.198 302.944 860.877 295.845C864.258 294.831 867.594 293.564 870.891 292.043C873.466 290.856 875.803 289.601 878.015 288.309C877.497 289.433 876.999 290.499 876.465 291.663C874.015 296.988 871.561 302.565 869.111 308.396C866.662 314.225 864.462 319.721 862.522 324.875C860.579 330.033 858.973 334.637 857.703 338.692C856.439 342.748 855.805 345.708 855.805 347.567C855.805 349.087 856.31 350.695 857.326 352.384C858.338 354.073 859.607 355.596 861.129 356.947C862.647 358.3 864.209 359.443 865.819 360.368C867.421 361.3 868.814 361.764 869.999 361.764C869.325 359.907 869.325 356.989 869.999 353.017C870.674 349.047 871.814 344.396 873.425 339.072C875.026 333.749 876.93 328.043 879.126 321.96C881.323 315.875 883.563 309.877 885.849 303.959C888.13 298.044 890.41 292.424 892.691 287.099C894.971 281.775 897.039 277.256 898.903 273.535C901.267 275.396 903.211 277.297 904.734 279.239C906.255 281.184 907.182 282.833 907.525 284.184C905.497 289.761 903.425 295.384 901.313 301.043C899.195 306.707 897.257 312.159 895.482 317.396C893.707 322.636 892.185 327.58 890.915 332.228C889.651 336.877 889.017 340.973 889.017 344.523C889.017 345.537 889.687 347.019 891.045 348.96C892.394 350.905 893.999 352.852 895.859 354.791C897.718 356.736 899.702 358.384 901.818 359.736C903.93 361.089 905.661 361.764 907.014 361.764C908.537 361.764 910.603 360.201 913.226 357.073C915.845 353.948 918.55 350.019 921.342 345.284C923.163 342.191 924.963 338.847 926.751 335.389C926.401 340.363 926.561 344.379 927.297 347.312C927.802 349.848 928.774 352.047 930.211 353.903C931.645 355.767 933.211 357.287 934.902 358.467C936.587 359.652 938.198 360.497 939.721 361.003C941.242 361.511 942.422 361.764 943.27 361.764C944.787 361.764 946.438 360.709 948.213 358.596C949.989 356.483 951.803 353.695 953.662 350.227C955.521 346.765 957.381 342.919 959.239 338.692C961.099 334.471 962.789 330.241 964.311 326.016C963.97 328.552 963.717 331.003 963.553 333.368C963.379 335.737 963.299 337.849 963.299 339.707C963.299 341.061 963.89 342.748 965.07 344.779C966.255 346.805 967.693 348.749 969.383 350.608C971.069 352.469 972.843 354.073 974.707 355.425C976.562 356.78 978.257 357.453 979.775 357.453C981.297 357.453 983.285 355.975 985.734 353.017C988.183 350.06 990.761 346.384 993.467 341.989C996.17 337.595 998.749 332.823 1001.2 327.664C1003.65 322.511 1005.67 317.649 1007.28 313.085C1008.89 308.521 1009.9 304.637 1010.33 301.423C1010.75 298.215 1010.2 296.44 1008.68 296.1Z" fill="white"/>
<path d="M1121.75 257.943C1117.53 263.267 1112.2 270.24 1105.78 278.86C1107.47 279.201 1110.72 278.352 1115.54 276.324C1120.36 274.296 1125.34 271.804 1130.5 268.845C1135.65 265.889 1140.26 262.677 1144.31 259.212C1148.37 255.748 1150.49 252.747 1150.65 250.211C1149.98 245.647 1148.29 241.381 1145.58 237.408C1142.88 233.439 1139.92 230.015 1136.71 227.14C1133.5 224.267 1130.41 221.987 1127.46 220.293C1124.5 218.607 1122.43 217.76 1121.25 217.76C1113.98 217.76 1106.33 218.944 1098.3 221.309C1090.27 223.676 1082.88 227.311 1076.11 232.209C1069.35 237.115 1063.82 243.237 1059.51 250.591C1055.2 257.943 1053.21 266.691 1053.55 276.832C1053.55 282.072 1054.91 286.636 1057.61 290.523C1060.31 294.412 1063.65 297.961 1067.62 301.169C1071.59 304.383 1075.86 307.341 1080.43 310.044C1084.99 312.748 1089.13 315.495 1092.85 318.284C1096.57 321.072 1099.57 324.032 1101.85 327.156C1104.13 330.287 1104.93 333.876 1104.26 337.932C1103.75 340.807 1102.23 343.256 1099.69 345.284C1097.16 347.312 1094.07 348.623 1090.44 349.213C1086.8 349.808 1082.88 349.384 1078.65 347.947C1074.42 346.513 1070.37 343.807 1066.48 339.833C1062.59 335.864 1059.13 330.413 1056.09 323.48C1053.05 316.553 1050.84 307.761 1049.5 297.115C1048.65 297.453 1047.63 298.381 1046.45 299.903C1045.27 301.423 1044.13 303.197 1043.03 305.228C1041.93 307.255 1040.96 309.409 1040.12 311.692C1039.27 313.973 1038.76 316.127 1038.59 318.157C1038.09 322.721 1038.85 327.624 1040.87 332.863C1042.9 338.103 1045.82 343.003 1049.62 347.567C1053.43 352.131 1057.9 356.02 1063.06 359.228C1068.21 362.439 1073.67 364.211 1079.41 364.552C1090.4 365.227 1099.95 361.724 1108.06 354.032C1116.17 346.343 1121.41 334.889 1123.78 319.677C1124.29 316.127 1123.18 313.004 1120.49 310.297C1117.78 307.595 1114.27 305.099 1109.96 302.817C1105.65 300.537 1100.92 298.381 1095.77 296.353C1090.61 294.325 1085.88 292.213 1081.57 290.015C1077.26 287.82 1073.75 285.369 1071.05 282.663C1068.34 279.96 1067.32 276.748 1068 273.029C1069.02 266.271 1071.76 260.649 1076.24 256.168C1080.72 251.693 1085.92 248.099 1091.83 245.395C1097.75 242.692 1103.88 240.747 1110.21 239.561C1116.55 238.381 1122.17 237.787 1127.07 237.787C1130.12 237.787 1131.93 238.295 1132.53 239.309C1133.12 240.323 1132.53 242.351 1130.75 245.395C1128.98 248.436 1125.97 252.62 1121.75 257.943Z" fill="white"/>
<path d="M1217.07 257.943C1212.85 263.267 1207.53 270.24 1201.11 278.86C1202.79 279.201 1206.05 278.352 1210.86 276.324C1215.68 274.296 1220.66 271.804 1225.82 268.845C1230.98 265.889 1235.58 262.677 1239.64 259.212C1243.7 255.748 1245.81 252.747 1245.98 250.211C1245.3 245.647 1243.61 241.381 1240.91 237.408C1238.2 233.439 1235.24 230.015 1232.03 227.14C1228.82 224.267 1225.74 221.987 1222.78 220.293C1219.82 218.607 1217.75 217.76 1216.57 217.76C1209.3 217.76 1201.65 218.944 1193.62 221.309C1185.59 223.676 1178.2 227.311 1171.44 232.209C1164.68 237.115 1159.14 243.237 1154.83 250.591C1150.53 257.943 1148.53 266.691 1148.88 276.832C1148.88 282.072 1150.23 286.636 1152.93 290.523C1155.63 294.412 1158.97 297.961 1162.95 301.169C1166.92 304.383 1171.19 307.341 1175.75 310.044C1180.31 312.748 1184.45 315.495 1188.18 318.284C1191.89 321.072 1194.89 324.032 1197.17 327.156C1199.45 330.287 1200.25 333.876 1199.58 337.932C1199.07 340.807 1197.56 343.256 1195.02 345.284C1192.48 347.312 1189.4 348.623 1185.77 349.213C1182.13 349.808 1178.2 349.384 1173.98 347.947C1169.75 346.513 1165.69 343.807 1161.81 339.833C1157.91 335.864 1154.45 330.413 1151.41 323.48C1148.37 316.553 1146.17 307.761 1144.82 297.115C1143.97 297.453 1142.96 298.381 1141.78 299.903C1140.59 301.423 1139.45 303.197 1138.35 305.228C1137.25 307.255 1136.28 309.409 1135.44 311.692C1134.59 313.973 1134.09 316.127 1133.92 318.157C1133.41 322.721 1134.17 327.624 1136.2 332.863C1138.23 338.103 1141.14 343.003 1144.95 347.567C1148.75 352.131 1153.22 356.02 1158.38 359.228C1163.54 362.439 1168.99 364.211 1174.73 364.552C1185.72 365.227 1195.27 361.724 1203.39 354.032C1211.5 346.343 1216.73 334.889 1219.1 319.677C1219.61 316.127 1218.51 313.004 1215.81 310.297C1213.1 307.595 1209.6 305.099 1205.29 302.817C1200.98 300.537 1196.24 298.381 1191.09 296.353C1185.93 294.325 1181.2 292.213 1176.89 290.015C1172.58 287.82 1169.07 285.369 1166.37 282.663C1163.66 279.96 1162.65 276.748 1163.33 273.029C1164.34 266.271 1167.09 260.649 1171.57 256.168C1176.04 251.693 1181.24 248.099 1187.16 245.395C1193.07 242.692 1199.2 240.747 1205.54 239.561C1211.88 238.381 1217.5 237.787 1222.4 237.787C1225.44 237.787 1227.26 238.295 1227.85 239.309C1228.44 240.323 1227.85 242.351 1226.08 245.395C1224.3 248.436 1221.3 252.62 1217.07 257.943Z" fill="white"/>
<path d="M1308.21 267.704C1306.1 273.282 1303.95 278.184 1301.75 282.41C1304.62 282.41 1307.79 281.103 1311.26 278.48C1314.72 275.86 1317.98 272.607 1321.02 268.718C1324.06 264.831 1326.6 260.564 1328.62 255.915C1330.65 251.27 1331.67 246.914 1331.67 242.859C1331.67 239.816 1330.44 236.818 1327.99 233.858C1325.54 230.903 1322.58 228.24 1319.12 225.871C1315.65 223.506 1312.06 221.604 1308.34 220.167C1304.62 218.734 1301.58 218.012 1299.22 218.012C1293.3 218.012 1287.3 220 1281.21 223.97C1275.13 227.943 1269.38 233.14 1263.98 239.562C1258.56 245.988 1253.58 253.296 1249.02 261.492C1244.45 269.692 1240.65 278.059 1237.61 286.591C1234.57 295.128 1232.49 303.368 1231.4 311.311C1230.3 319.258 1230.42 326.268 1231.78 332.354C1232.79 337.426 1234.61 341.95 1237.23 345.919C1239.85 349.892 1242.89 353.271 1246.36 356.059C1249.82 358.848 1253.5 360.963 1257.38 362.398C1261.27 363.831 1264.99 364.552 1268.54 364.552C1272.42 364.552 1276.44 363.831 1280.58 362.398C1284.72 360.963 1288.7 358.848 1292.5 356.059C1296.3 353.271 1299.85 349.892 1303.15 345.919C1306.44 341.95 1309.1 337.512 1311.13 332.607C1312.48 329.736 1312.9 326.736 1312.4 323.608C1311.89 320.482 1310.96 317.735 1309.61 315.368C1311.98 315.031 1314.3 314.82 1316.58 314.734C1318.86 314.65 1321.1 314.694 1323.3 314.86C1323.3 314.018 1323.26 312.876 1323.18 311.438C1323.09 310.004 1322.92 308.608 1322.67 307.255C1322.41 305.904 1321.99 304.719 1321.4 303.706C1320.81 302.691 1320.09 302.183 1319.24 302.183C1316.88 302.183 1313.24 302.31 1308.34 302.564C1303.44 302.818 1298.28 303.031 1292.88 303.198C1287.47 303.368 1282.39 303.452 1277.66 303.452C1272.93 303.452 1269.46 303.198 1267.27 302.691C1267.1 304.047 1267.23 305.734 1267.65 307.76C1268.07 309.791 1268.67 311.779 1269.42 313.72C1270.19 315.666 1271.03 317.312 1271.96 318.663C1272.89 320.019 1273.78 320.691 1274.62 320.691C1278 320.691 1281.98 320.23 1286.54 319.298C1291.1 318.37 1295.92 317.483 1300.99 316.635C1299.13 320.862 1296.89 325.002 1294.27 329.058C1291.65 333.115 1288.78 336.751 1285.65 339.959C1282.52 343.172 1279.27 345.752 1275.89 347.694C1272.51 349.636 1269.21 350.608 1266 350.608C1259.07 350.608 1254.47 347.735 1252.19 341.99C1249.9 336.243 1249.36 329.019 1250.54 320.311C1251.72 311.608 1254.3 302.183 1258.27 292.042C1262.24 281.902 1266.98 272.48 1272.47 263.775C1277.96 255.072 1283.88 247.846 1290.22 242.098C1296.55 236.354 1302.68 233.478 1308.6 233.478C1311.64 233.478 1313.37 235.254 1313.79 238.803C1314.21 242.35 1313.92 246.662 1312.9 251.732C1311.89 256.802 1310.33 262.127 1308.21 267.704Z" fill="white"/>
<path d="M1272.85 123.504H273.962C186.67 123.504 115.905 194.27 115.905 281.563C115.905 368.856 186.67 439.62 273.962 439.62H1272.85C1360.15 439.62 1430.91 368.856 1430.91 281.563C1430.91 194.27 1360.15 123.504 1272.85 123.504ZM1272.85 150.767C1344.98 150.767 1403.65 209.442 1403.65 281.563C1403.65 353.684 1344.98 412.359 1272.85 412.359H273.962C201.841 412.359 143.166 353.684 143.166 281.563C143.166 209.442 201.841 150.767 273.962 150.767H1272.85Z" fill="white"/>
<path d="M371.818 517.55C371.173 517.55 370.689 517.333 370.368 516.893C370.046 516.458 369.953 515.846 370.092 515.065L376.864 472.225H360.625C359.98 472.225 359.474 472.074 359.106 471.777C358.736 471.474 358.553 471.075 358.553 470.565C358.553 469.877 358.76 469.345 359.174 468.977C359.589 468.609 360.142 468.426 360.832 468.426H397.938C398.628 468.426 399.146 468.55 399.493 468.803C399.837 469.057 400.01 469.438 400.01 469.943C400.01 470.681 399.804 471.249 399.389 471.638C398.974 472.029 398.421 472.225 397.732 472.225H381.078L374.237 515.478C374.145 516.126 373.904 516.631 373.512 516.999C373.121 517.369 372.554 517.55 371.818 517.55Z" fill="white"/>
<path d="M404.984 517.692C402.588 517.692 400.549 517.195 398.869 516.205C397.188 515.216 396.001 513.708 395.311 511.68C394.619 509.652 394.504 507.073 394.965 503.941L397.936 485.216C398.075 484.524 398.34 484.005 398.732 483.659C399.123 483.313 399.64 483.14 400.285 483.14C400.977 483.14 401.495 483.348 401.84 483.765C402.187 484.179 402.288 484.777 402.151 485.559L399.249 504.008C398.696 507.371 398.973 509.896 400.079 511.573C401.184 513.259 403.093 514.097 405.813 514.097C409.359 514.097 412.192 512.98 414.313 510.748C416.429 508.512 417.768 505.529 418.32 501.799L420.876 485.216C421.016 484.524 421.28 484.005 421.672 483.659C422.063 483.313 422.604 483.14 423.293 483.14C423.987 483.14 424.492 483.34 424.816 483.729C425.137 484.12 425.228 484.684 425.091 485.42L420.323 515.549C420.139 516.884 419.379 517.551 418.043 517.551C417.352 517.551 416.857 517.355 416.559 516.964C416.259 516.573 416.155 515.988 416.248 515.203L417.284 508.707L417.973 509.124C416.869 511.84 415.187 513.947 412.931 515.443C410.672 516.943 408.024 517.692 404.984 517.692Z" fill="white"/>
<path d="M459.71 517.692C457.822 517.692 456.05 517.275 454.39 516.445C452.733 515.616 451.383 514.453 450.347 512.957C449.311 511.463 448.793 509.723 448.793 507.74C448.793 505.392 449.461 503.488 450.798 502.037C452.134 500.587 454.206 499.54 457.017 498.896C459.826 498.253 463.417 497.929 467.794 497.929H473.393L472.909 501.039H468.762C464.846 501.039 461.761 501.235 459.503 501.625C457.245 502.016 455.646 502.695 454.701 503.661C453.755 504.629 453.285 505.92 453.285 507.531C453.285 509.745 454.022 511.427 455.495 512.576C456.97 513.729 458.627 514.307 460.471 514.307C462.269 514.307 463.947 513.903 465.514 513.095C467.081 512.292 468.415 511.116 469.523 509.572C470.627 508.028 471.365 506.151 471.733 503.941L473.046 495.511C473.551 492.564 473.207 490.341 472.01 488.841C470.811 487.347 468.693 486.596 465.654 486.596C463.857 486.596 462.163 486.769 460.575 487.116C458.985 487.461 457.454 488.119 455.978 489.085C455.519 489.405 455.069 489.556 454.631 489.533C454.194 489.512 453.838 489.373 453.561 489.116C453.285 488.864 453.123 488.553 453.077 488.185C453.03 487.816 453.111 487.427 453.318 487.009C453.527 486.596 453.906 486.251 454.458 485.975C456.162 484.915 458.017 484.156 460.021 483.695C462.026 483.233 464.017 483.003 465.998 483.003C468.899 483.003 471.238 483.557 473.013 484.661C474.785 485.767 476.006 487.347 476.674 489.396C477.341 491.447 477.446 493.873 476.983 496.687L474.013 515.477C473.921 516.171 473.678 516.689 473.287 517.035C472.895 517.381 472.355 517.551 471.663 517.551C471.065 517.551 470.617 517.345 470.317 516.929C470.018 516.516 469.913 515.917 470.006 515.132L470.974 508.981L471.595 509.328C470.995 511.219 470.075 512.784 468.83 514.027C467.589 515.273 466.17 516.192 464.582 516.791C462.994 517.391 461.37 517.692 459.71 517.692Z" fill="white"/>
<path d="M494.395 517.692C491.309 517.692 489.051 516.769 487.625 514.928C486.195 513.087 485.78 510.344 486.382 506.705L492.186 470.081C492.323 469.344 492.587 468.816 492.979 468.492C493.37 468.173 493.911 468.009 494.603 468.009C495.247 468.009 495.731 468.217 496.055 468.631C496.377 469.047 496.47 469.668 496.33 470.499L490.595 506.705C490.135 509.328 490.306 511.205 491.114 512.336C491.919 513.464 493.335 514.027 495.362 514.027C496.055 514.027 496.583 513.983 496.954 513.889C497.322 513.796 497.619 513.752 497.851 513.752C498.127 513.752 498.345 513.845 498.506 514.027C498.669 514.213 498.749 514.581 498.749 515.132C498.749 515.78 498.578 516.299 498.231 516.689C497.885 517.08 497.413 517.345 496.814 517.484C496.491 517.528 496.089 517.576 495.605 517.621C495.121 517.665 494.717 517.692 494.395 517.692Z" fill="white"/>
<path d="M513.329 474.989C512.453 474.989 511.785 474.771 511.325 474.331C510.863 473.893 510.655 473.285 510.702 472.499C510.749 471.443 511.083 470.635 511.705 470.081C512.326 469.531 513.167 469.251 514.227 469.251C515.101 469.251 515.769 469.459 516.23 469.877C516.69 470.29 516.898 470.911 516.851 471.741C516.805 472.753 516.473 473.551 515.851 474.123C515.227 474.701 514.387 474.989 513.329 474.989ZM506.486 517.55C505.797 517.55 505.302 517.346 505.002 516.929C504.703 516.517 504.623 515.895 504.761 515.065L509.459 485.283C509.597 484.546 509.861 484.005 510.254 483.659C510.645 483.313 511.186 483.139 511.878 483.139C512.521 483.139 513.005 483.362 513.329 483.797C513.65 484.235 513.743 484.849 513.603 485.629L508.905 515.478C508.814 516.17 508.561 516.689 508.146 517.035C507.731 517.382 507.179 517.55 506.486 517.55Z" fill="white"/>
<path d="M530.807 517.692C528.919 517.692 527.147 517.275 525.487 516.445C523.829 515.616 522.48 514.453 521.444 512.957C520.408 511.463 519.889 509.723 519.889 507.74C519.889 505.392 520.557 503.488 521.895 502.037C523.231 500.587 525.303 499.54 528.113 498.896C530.923 498.253 534.513 497.929 538.891 497.929H544.489L544.005 501.039H539.859C535.943 501.039 532.856 501.235 530.6 501.625C528.341 502.016 526.743 502.695 525.797 503.661C524.852 504.629 524.381 505.92 524.381 507.531C524.381 509.745 525.119 511.427 526.592 512.576C528.067 513.729 529.724 514.307 531.568 514.307C533.365 514.307 535.044 513.903 536.611 513.095C538.177 512.292 539.512 511.116 540.62 509.572C541.724 508.028 542.461 506.151 542.829 503.941L544.143 495.511C544.648 492.564 544.304 490.341 543.107 488.841C541.908 487.347 539.789 486.596 536.751 486.596C534.953 486.596 533.26 486.769 531.672 487.116C530.081 487.461 528.551 488.119 527.075 489.085C526.616 489.405 526.165 489.556 525.728 489.533C525.291 489.512 524.935 489.373 524.657 489.116C524.381 488.864 524.22 488.553 524.173 488.185C524.127 487.816 524.208 487.427 524.415 487.009C524.624 486.596 525.003 486.251 525.555 485.975C527.259 484.915 529.113 484.156 531.117 483.695C533.123 483.233 535.113 483.003 537.095 483.003C539.996 483.003 542.335 483.557 544.109 484.661C545.881 485.767 547.103 487.347 547.771 489.396C548.437 491.447 548.543 493.873 548.08 496.687L545.109 515.477C545.017 516.171 544.775 516.689 544.384 517.035C543.992 517.381 543.452 517.551 542.76 517.551C542.161 517.551 541.713 517.345 541.413 516.929C541.115 516.516 541.009 515.917 541.103 515.132L542.071 508.981L542.692 509.328C542.092 511.219 541.172 512.784 539.927 514.027C538.685 515.273 537.267 516.192 535.679 516.791C534.091 517.391 532.467 517.692 530.807 517.692Z" fill="white"/>
<path d="M570.328 514.165C573.092 514.165 575.418 513.406 577.308 511.889C579.196 510.366 580.636 508.338 581.627 505.805C582.618 503.271 583.112 500.485 583.112 497.446C583.112 493.851 582.238 491.145 580.487 489.326C578.735 487.506 576.316 486.597 573.232 486.597C570.512 486.597 568.199 487.355 566.286 488.877C564.376 490.399 562.936 492.414 561.968 494.921C561.002 497.433 560.518 500.231 560.518 503.321C560.518 506.866 561.38 509.559 563.11 511.401C564.835 513.246 567.242 514.165 570.328 514.165ZM569.223 517.693C566.643 517.693 564.376 517.115 562.416 515.962C560.46 514.813 558.938 513.166 557.858 511.023C556.775 508.879 556.234 506.338 556.234 503.387C556.234 499.749 556.866 496.385 558.132 493.301C559.399 490.213 561.287 487.729 563.799 485.838C566.311 483.947 569.362 483.002 572.955 483.002C575.719 483.002 578.182 483.707 580.347 485.11C582.512 486.517 583.986 488.695 584.771 491.642H584.288L587.742 470.015C587.832 469.322 588.088 468.817 588.5 468.493C588.915 468.174 589.47 468.009 590.16 468.009C590.804 468.009 591.276 468.218 591.576 468.63C591.875 469.047 591.958 469.646 591.818 470.427L584.703 515.478C584.61 516.126 584.367 516.631 583.978 517.001C583.584 517.369 583.019 517.55 582.282 517.55C581.636 517.55 581.166 517.333 580.867 516.894C580.567 516.459 580.487 515.846 580.624 515.066L581.592 509.19L582.214 509.674C581.015 512.119 579.311 514.062 577.102 515.514C574.89 516.965 572.266 517.693 569.223 517.693Z" fill="white"/>
<path d="M610.059 514.165C612.823 514.165 615.148 513.406 617.039 511.889C618.927 510.366 620.367 508.338 621.358 505.805C622.348 503.271 622.843 500.485 622.843 497.446C622.843 493.851 621.968 491.145 620.218 489.326C618.466 487.506 616.047 486.597 612.963 486.597C610.243 486.597 607.93 487.355 606.016 488.877C604.107 490.399 602.667 492.414 601.699 494.921C600.732 497.433 600.248 500.231 600.248 503.321C600.248 506.866 601.111 509.559 602.84 511.401C604.566 513.246 606.972 514.165 610.059 514.165ZM609.922 517.693C607.066 517.693 604.59 517.115 602.494 515.962C600.398 514.813 598.787 513.139 597.658 510.953C596.528 508.765 595.964 506.151 595.964 503.111C595.964 500.391 596.344 497.814 597.104 495.373C597.863 492.933 598.992 490.79 600.49 488.943C601.986 487.102 603.796 485.651 605.915 484.591C608.034 483.535 610.452 483.002 613.17 483.002C616.024 483.002 618.5 483.593 620.598 484.763C622.694 485.939 624.304 487.622 625.434 489.809C626.563 491.997 627.127 494.587 627.127 497.583C627.127 500.347 626.736 502.938 625.952 505.357C625.167 507.775 624.03 509.918 622.532 511.782C621.035 513.65 619.238 515.101 617.143 516.135C615.047 517.173 612.639 517.693 609.922 517.693Z" fill="white"/>
<path d="M666.167 517.692C663.08 517.692 660.41 517.101 658.154 515.927C655.895 514.755 654.167 513.087 652.971 510.916C651.772 508.756 651.174 506.151 651.174 503.112C651.174 499.517 651.864 496.203 653.246 493.159C654.628 490.12 656.643 487.665 659.291 485.803C661.94 483.935 665.084 483.003 668.726 483.003C671.303 483.003 673.458 483.464 675.186 484.387C676.911 485.309 678.283 486.539 679.296 488.083C680.308 489.627 680.978 491.388 681.3 493.368C681.622 495.351 681.646 497.352 681.368 499.38C681.275 500.116 681.094 500.613 680.816 500.867C680.539 501.119 680.102 501.244 679.503 501.244H654.282L654.766 498.137H679.019L677.706 499.033C678.074 496.687 678.006 494.565 677.499 492.675C676.991 490.789 676.038 489.268 674.634 488.119C673.227 486.964 671.234 486.388 668.656 486.388C665.983 486.388 663.748 487 661.954 488.22C660.156 489.44 658.763 490.997 657.772 492.884C656.783 494.775 656.102 496.708 655.732 498.688L655.527 500.139C654.836 504.332 655.447 507.717 657.358 510.295C659.27 512.877 662.23 514.164 666.236 514.164C668.079 514.164 669.783 513.939 671.35 513.477C672.916 513.015 674.436 512.279 675.911 511.263C676.463 510.895 676.936 510.712 677.327 510.712C677.716 510.712 678.052 510.828 678.33 511.059C678.604 511.289 678.778 511.573 678.846 511.919C678.918 512.265 678.858 512.647 678.675 513.06C678.49 513.477 678.167 513.845 677.706 514.164C676.186 515.319 674.378 516.192 672.283 516.791C670.187 517.391 668.148 517.692 666.167 517.692Z" fill="white"/>
<path d="M689.316 517.55C688.624 517.55 688.129 517.319 687.829 516.862C687.53 516.401 687.45 515.779 687.588 514.994L692.286 485.283C692.424 484.546 692.688 484.005 693.081 483.659C693.472 483.313 694.013 483.139 694.705 483.139C695.301 483.139 695.752 483.349 696.052 483.766C696.35 484.178 696.43 484.777 696.293 485.558L695.326 491.987L694.636 491.57C695.785 488.899 697.502 486.805 699.782 485.283C702.064 483.766 704.793 483.002 707.972 483.002C710.458 483.002 712.542 483.513 714.224 484.525C715.905 485.535 717.104 487.058 717.818 489.086C718.53 491.114 718.634 493.669 718.129 496.753L715.158 515.549C715.065 516.193 714.812 516.689 714.397 517.035C713.982 517.382 713.429 517.55 712.74 517.55C712.048 517.55 711.553 517.333 711.253 516.893C710.953 516.458 710.873 515.846 711.012 515.065L713.913 496.753C714.465 493.345 714.166 490.811 713.014 489.153C711.864 487.493 709.906 486.667 707.142 486.667C703.457 486.667 700.544 487.773 698.401 489.982C696.26 492.191 694.889 495.165 694.29 498.897L691.734 515.478C691.501 516.862 690.696 517.55 689.316 517.55Z" fill="white"/>
<path d="M752.952 517.692C749.865 517.692 747.608 516.769 746.181 514.928C744.752 513.087 744.337 510.344 744.938 506.705L750.742 470.081C750.88 469.344 751.144 468.816 751.536 468.492C751.926 468.173 752.468 468.009 753.16 468.009C753.804 468.009 754.288 468.217 754.612 468.631C754.933 469.047 755.026 469.668 754.886 470.499L749.152 506.705C748.692 509.328 748.862 511.205 749.67 512.336C750.476 513.464 751.892 514.027 753.918 514.027C754.612 514.027 755.14 513.983 755.51 513.889C755.878 513.796 756.176 513.752 756.408 513.752C756.684 513.752 756.901 513.845 757.062 514.027C757.225 514.213 757.305 514.581 757.305 515.132C757.305 515.78 757.134 516.299 756.788 516.689C756.441 517.08 755.969 517.345 755.37 517.484C755.048 517.528 754.645 517.576 754.161 517.621C753.677 517.665 753.273 517.692 752.952 517.692Z" fill="white"/>
<path d="M774.026 517.692C772.138 517.692 770.364 517.275 768.706 516.445C767.048 515.616 765.699 514.453 764.663 512.957C763.627 511.463 763.108 509.723 763.108 507.74C763.108 505.392 763.776 503.488 765.114 502.037C766.45 500.587 768.522 499.54 771.332 498.896C774.14 498.253 777.732 497.929 782.11 497.929H787.707L787.224 501.039H783.078C779.162 501.039 776.075 501.235 773.819 501.625C771.56 502.016 769.962 502.695 769.016 503.661C768.071 504.629 767.6 505.92 767.6 507.531C767.6 509.745 768.338 511.427 769.811 512.576C771.286 513.729 772.943 514.307 774.787 514.307C776.584 514.307 778.263 513.903 779.83 513.095C781.396 512.292 782.731 511.116 783.839 509.572C784.943 508.028 785.68 506.151 786.048 503.941L787.362 495.511C787.867 492.564 787.523 490.341 786.326 488.841C785.127 487.347 783.008 486.596 779.97 486.596C778.172 486.596 776.479 486.769 774.891 487.116C773.3 487.461 771.77 488.119 770.294 489.085C769.835 489.405 769.384 489.556 768.947 489.533C768.51 489.512 768.154 489.373 767.876 489.116C767.6 488.864 767.439 488.553 767.392 488.185C767.346 487.816 767.427 487.427 767.634 487.009C767.843 486.596 768.222 486.251 768.774 485.975C770.478 484.915 772.332 484.156 774.336 483.695C776.342 483.233 778.332 483.003 780.314 483.003C783.215 483.003 785.554 483.557 787.328 484.661C789.1 485.767 790.322 487.347 790.988 489.396C791.656 491.447 791.762 493.873 791.299 496.687L788.328 515.477C788.236 516.171 787.994 516.689 787.603 517.035C787.211 517.381 786.671 517.551 785.979 517.551C785.38 517.551 784.932 517.345 784.632 516.929C784.334 516.516 784.228 515.917 784.322 515.132L785.29 508.981L785.911 509.328C785.311 511.219 784.391 512.784 783.146 514.027C781.904 515.273 780.486 516.192 778.898 516.791C777.31 517.391 775.686 517.692 774.026 517.692Z" fill="white"/>
<path d="M831.032 512.785C833.842 512.785 836.202 512.035 838.114 510.539C840.024 509.045 841.475 507.074 842.467 504.629C843.456 502.189 843.954 499.566 843.954 496.753C843.954 493.531 843.078 491.029 841.327 489.259C839.576 487.483 837.136 486.597 834.003 486.597C831.239 486.597 828.89 487.346 826.955 488.842C825.02 490.342 823.57 492.298 822.602 494.717C821.635 497.135 821.151 499.749 821.151 502.557C821.151 505.827 822.014 508.351 823.742 510.122C825.468 511.897 827.898 512.785 831.032 512.785ZM830.408 530.13C827.784 530.13 825.342 529.747 823.086 528.989C820.827 528.226 818.776 527.201 816.935 525.914C816.52 525.683 816.268 525.382 816.175 525.014C816.083 524.645 816.095 524.277 816.21 523.909C816.326 523.541 816.52 523.23 816.798 522.977C817.074 522.723 817.408 522.573 817.799 522.529C818.191 522.479 818.595 522.595 819.007 522.875C820.711 524.069 822.428 524.991 824.156 525.635C825.883 526.282 827.854 526.602 830.066 526.602C833.104 526.602 835.58 525.807 837.492 524.219C839.403 522.631 840.636 520.177 841.19 516.862L842.571 508.223L843.123 508.294C841.972 510.779 840.266 512.749 838.01 514.201C835.754 515.651 833.127 516.379 830.134 516.379C827.46 516.379 825.135 515.815 823.154 514.683C821.172 513.557 819.631 511.969 818.524 509.918C817.419 507.869 816.867 505.459 816.867 502.694C816.867 500.117 817.235 497.654 817.971 495.302C818.708 492.955 819.791 490.857 821.219 489.015C822.646 487.173 824.41 485.709 826.507 484.626C828.6 483.543 831.008 483.002 833.726 483.002C836.535 483.002 839.024 483.707 841.19 485.11C843.355 486.517 844.827 488.695 845.611 491.642L844.99 492.125L846.095 485.217C846.232 484.525 846.498 484.005 846.888 483.659C847.279 483.313 847.823 483.139 848.512 483.139C849.158 483.139 849.628 483.362 849.93 483.797C850.227 484.235 850.31 484.849 850.172 485.629L845.264 516.654C844.528 521.166 842.939 524.543 840.496 526.775C838.056 529.011 834.692 530.13 830.408 530.13Z" fill="white"/>
<path d="M867.444 517.692C865.556 517.692 863.784 517.275 862.124 516.445C860.466 515.616 859.117 514.453 858.081 512.957C857.045 511.463 856.526 509.723 856.526 507.74C856.526 505.392 857.194 503.488 858.532 502.037C859.868 500.587 861.94 499.54 864.75 498.896C867.558 498.253 871.15 497.929 875.528 497.929H881.125L880.642 501.039H876.496C872.58 501.039 869.493 501.235 867.237 501.625C864.978 502.016 863.38 502.695 862.434 503.661C861.489 504.629 861.018 505.92 861.018 507.531C861.018 509.745 861.756 511.427 863.229 512.576C864.704 513.729 866.361 514.307 868.205 514.307C870.002 514.307 871.681 513.903 873.248 513.095C874.814 512.292 876.149 511.116 877.257 509.572C878.361 508.028 879.098 506.151 879.466 503.941L880.78 495.511C881.285 492.564 880.941 490.341 879.744 488.841C878.545 487.347 876.426 486.596 873.388 486.596C871.59 486.596 869.897 486.769 868.309 487.116C866.718 487.461 865.188 488.119 863.712 489.085C863.253 489.405 862.802 489.556 862.365 489.533C861.928 489.512 861.572 489.373 861.294 489.116C861.018 488.864 860.857 488.553 860.81 488.185C860.764 487.816 860.845 487.427 861.052 487.009C861.261 486.596 861.64 486.251 862.192 485.975C863.896 484.915 865.75 484.156 867.754 483.695C869.76 483.233 871.75 483.003 873.732 483.003C876.633 483.003 878.972 483.557 880.746 484.661C882.518 485.767 883.74 487.347 884.406 489.396C885.074 491.447 885.18 493.873 884.717 496.687L881.746 515.477C881.654 516.171 881.412 516.689 881.021 517.035C880.629 517.381 880.089 517.551 879.397 517.551C878.798 517.551 878.35 517.345 878.05 516.929C877.752 516.516 877.646 515.917 877.74 515.132L878.708 508.981L879.329 509.328C878.729 511.219 877.809 512.784 876.564 514.027C875.322 515.273 873.904 516.192 872.316 516.791C870.728 517.391 869.104 517.692 867.444 517.692Z" fill="white"/>
<path d="M904.825 517.692C902.613 517.692 900.517 517.412 898.537 516.863C896.557 516.308 894.85 515.549 893.423 514.581C892.962 514.351 892.665 514.027 892.525 513.615C892.387 513.197 892.351 512.807 892.423 512.439C892.491 512.071 892.665 511.76 892.939 511.507C893.217 511.253 893.55 511.125 893.942 511.125C894.333 511.125 894.781 511.263 895.289 511.543C896.715 512.509 898.249 513.197 899.883 513.615C901.519 514.027 903.237 514.236 905.031 514.236C907.658 514.236 909.73 513.708 911.25 512.647C912.771 511.587 913.53 510.069 913.53 508.085C913.53 506.799 913.105 505.725 912.253 504.873C911.401 504.021 910.214 503.409 908.694 503.04L902.061 501.385C899.895 500.831 898.179 499.828 896.913 498.377C895.646 496.927 895.011 495.187 895.011 493.159C895.011 491.18 895.553 489.427 896.635 487.909C897.718 486.388 899.25 485.189 901.23 484.316C903.211 483.441 905.493 483.003 908.073 483.003C910.051 483.003 911.965 483.304 913.807 483.903C915.649 484.501 917.169 485.309 918.367 486.321C918.829 486.689 919.139 487.071 919.301 487.461C919.461 487.852 919.497 488.233 919.403 488.601C919.313 488.971 919.127 489.259 918.85 489.463C918.575 489.671 918.241 489.773 917.85 489.773C917.457 489.773 917.031 489.592 916.573 489.223C915.418 488.3 914.107 487.621 912.631 487.183C911.159 486.747 909.593 486.525 907.933 486.525C905.262 486.525 903.121 487.103 901.507 488.256C899.895 489.405 899.09 490.997 899.09 493.021C899.09 494.22 899.469 495.257 900.23 496.132C900.989 497.005 902.129 497.653 903.651 498.067L910.282 499.792C912.585 500.392 914.395 501.349 915.707 502.663C917.021 503.972 917.677 505.667 917.677 507.74C917.677 510.828 916.501 513.259 914.151 515.029C911.805 516.804 908.694 517.692 904.825 517.692Z" fill="white"/>
<path d="M938.061 517.692C935.619 517.692 933.604 517.217 932.016 516.272C930.427 515.332 929.32 513.992 928.699 512.265C928.077 510.539 927.949 508.476 928.32 506.08L931.359 487.009H926.523C925.924 487.009 925.44 486.885 925.072 486.632C924.703 486.379 924.519 486.02 924.519 485.559C924.519 484.915 924.736 484.431 925.176 484.107C925.613 483.788 926.155 483.624 926.8 483.624H931.843L933.293 474.851C933.387 474.159 933.64 473.653 934.055 473.329C934.469 473.009 934.997 472.845 935.643 472.845C936.335 472.845 936.828 473.055 937.129 473.467C937.427 473.884 937.531 474.483 937.44 475.264L936.057 483.624H945.109C945.753 483.624 946.251 483.739 946.593 483.969C946.94 484.2 947.113 484.547 947.113 485.008C947.113 485.651 946.917 486.148 946.525 486.495C946.135 486.84 945.593 487.009 944.901 487.009H935.505L932.604 505.529C932.143 508.525 932.441 510.691 933.503 512.025C934.56 513.361 936.264 514.027 938.613 514.027C939.628 514.027 940.421 513.925 940.999 513.716C941.573 513.508 942.045 513.405 942.415 513.405C942.783 513.405 943.06 513.508 943.244 513.716C943.428 513.925 943.521 514.28 943.521 514.791C943.521 515.477 943.417 515.988 943.208 516.308C943.003 516.632 942.667 516.884 942.208 517.067C941.7 517.253 941.043 517.404 940.237 517.519C939.432 517.629 938.707 517.692 938.061 517.692Z" fill="white"/>
<path d="M950.43 517.55C949.738 517.55 949.243 517.346 948.943 516.929C948.644 516.517 948.564 515.917 948.702 515.131L953.4 485.217C953.538 484.525 953.802 484.005 954.195 483.659C954.586 483.313 955.104 483.139 955.75 483.139C956.394 483.139 956.876 483.362 957.2 483.797C957.523 484.235 957.616 484.849 957.476 485.629L956.578 491.57H955.819C956.786 488.806 958.443 486.69 960.792 485.217C963.142 483.739 965.723 482.979 968.531 482.935C969.454 482.887 970.075 482.979 970.396 483.211C970.719 483.442 970.88 483.854 970.88 484.453C970.88 485.19 970.71 485.722 970.364 486.042C970.018 486.366 969.43 486.574 968.602 486.667L967.495 486.734C963.579 487.058 960.746 488.234 958.995 490.257C957.246 492.285 956.118 494.934 955.61 498.203L952.848 515.549C952.755 516.193 952.502 516.689 952.087 517.035C951.672 517.382 951.12 517.55 950.43 517.55Z" fill="white"/>
<path d="M986.012 514.165C988.776 514.165 991.101 513.406 992.992 511.889C994.88 510.366 996.32 508.338 997.31 505.805C998.301 503.271 998.796 500.485 998.796 497.446C998.796 493.851 997.921 491.145 996.17 489.326C994.418 487.506 992 486.597 988.916 486.597C986.196 486.597 983.882 487.355 981.969 488.877C980.06 490.399 978.62 492.414 977.652 494.921C976.685 497.433 976.201 500.231 976.201 503.321C976.201 506.866 977.064 509.559 978.793 511.401C980.518 513.246 982.925 514.165 986.012 514.165ZM985.874 517.693C983.018 517.693 980.542 517.115 978.446 515.962C976.35 514.813 974.74 513.139 973.61 510.953C972.481 508.765 971.917 506.151 971.917 503.111C971.917 500.391 972.297 497.814 973.057 495.373C973.816 492.933 974.945 490.79 976.442 488.943C977.938 487.102 979.749 485.651 981.868 484.591C983.986 483.535 986.404 483.002 989.122 483.002C991.977 483.002 994.453 483.593 996.55 484.763C998.646 485.939 1000.26 487.622 1001.39 489.809C1002.52 491.997 1003.08 494.587 1003.08 497.583C1003.08 500.347 1002.69 502.938 1001.9 505.357C1001.12 507.775 999.982 509.918 998.485 511.782C996.988 513.65 995.19 515.101 993.096 516.135C991 517.173 988.592 517.693 985.874 517.693Z" fill="white"/>
<path d="M1011.44 517.55C1010.75 517.55 1010.25 517.319 1009.95 516.862C1009.66 516.401 1009.58 515.779 1009.71 514.994L1014.41 485.283C1014.55 484.546 1014.81 484.005 1015.21 483.659C1015.6 483.313 1016.14 483.139 1016.83 483.139C1017.43 483.139 1017.88 483.349 1018.18 483.766C1018.48 484.178 1018.56 484.777 1018.42 485.558L1017.45 491.987L1016.76 491.57C1017.91 488.899 1019.63 486.805 1021.91 485.283C1024.19 483.766 1026.92 483.002 1030.1 483.002C1032.58 483.002 1034.67 483.513 1036.35 484.525C1038.03 485.535 1039.23 487.058 1039.94 489.086C1040.66 491.114 1040.76 493.669 1040.25 496.753L1037.28 515.549C1037.19 516.193 1036.94 516.689 1036.52 517.035C1036.11 517.382 1035.55 517.55 1034.87 517.55C1034.17 517.55 1033.68 517.333 1033.38 516.893C1033.08 516.458 1033 515.846 1033.14 515.065L1036.04 496.753C1036.59 493.345 1036.29 490.811 1035.14 489.153C1033.99 487.493 1032.03 486.667 1029.27 486.667C1025.58 486.667 1022.67 487.773 1020.53 489.982C1018.39 492.191 1017.01 495.165 1016.42 498.897L1013.86 515.478C1013.63 516.862 1012.82 517.55 1011.44 517.55Z" fill="white"/>
<path d="M1062.5 514.165C1065.27 514.165 1067.59 513.406 1069.48 511.889C1071.37 510.366 1072.81 508.338 1073.8 505.805C1074.79 503.271 1075.29 500.485 1075.29 497.446C1075.29 493.851 1074.41 491.145 1072.66 489.326C1070.91 487.506 1068.49 486.597 1065.41 486.597C1062.69 486.597 1060.37 487.355 1058.46 488.877C1056.55 490.399 1055.11 492.414 1054.14 494.921C1053.17 497.433 1052.69 500.231 1052.69 503.321C1052.69 506.866 1053.55 509.559 1055.28 511.401C1057.01 513.246 1059.41 514.165 1062.5 514.165ZM1062.36 517.693C1059.51 517.693 1057.03 517.115 1054.94 515.962C1052.84 514.813 1051.23 513.139 1050.1 510.953C1048.97 508.765 1048.41 506.151 1048.41 503.111C1048.41 500.391 1048.79 497.814 1049.55 495.373C1050.31 492.933 1051.43 490.79 1052.93 488.943C1054.43 487.102 1056.24 485.651 1058.36 484.591C1060.48 483.535 1062.89 483.002 1065.61 483.002C1068.47 483.002 1070.94 483.593 1073.04 484.763C1075.14 485.939 1076.75 487.622 1077.88 489.809C1079.01 491.997 1079.57 494.587 1079.57 497.583C1079.57 500.347 1079.18 502.938 1078.39 505.357C1077.61 507.775 1076.47 509.918 1074.97 511.782C1073.48 513.65 1071.68 515.101 1069.59 516.135C1067.49 517.173 1065.08 517.693 1062.36 517.693Z" fill="white"/>
<path d="M1088 517.55C1087.31 517.55 1086.81 517.346 1086.51 516.929C1086.21 516.517 1086.13 515.917 1086.27 515.131L1090.97 485.217C1091.11 484.525 1091.37 484.005 1091.77 483.659C1092.16 483.313 1092.7 483.139 1093.39 483.139C1093.99 483.139 1094.44 483.37 1094.74 483.831C1095.03 484.294 1095.14 484.893 1095.05 485.629L1094.01 492.054L1093.39 491.642C1094.59 488.877 1096.22 486.747 1098.29 485.247C1100.37 483.753 1102.76 483.002 1105.48 483.002C1108.2 483.002 1110.4 483.753 1112.08 485.247C1113.76 486.747 1114.76 488.922 1115.08 491.779L1114.26 491.642C1115.31 488.97 1116.94 486.862 1119.13 485.318C1121.31 483.774 1123.91 483.002 1126.9 483.002C1129.25 483.002 1131.22 483.513 1132.81 484.525C1134.4 485.535 1135.52 487.058 1136.16 489.086C1136.8 491.114 1136.87 493.691 1136.37 496.823L1133.47 515.549C1133.37 516.193 1133.12 516.689 1132.7 517.035C1132.29 517.382 1131.74 517.55 1131.05 517.55C1130.35 517.55 1129.86 517.346 1129.56 516.929C1129.26 516.517 1129.16 515.917 1129.25 515.131L1132.15 496.478C1132.66 493.159 1132.42 490.697 1131.43 489.086C1130.43 487.47 1128.63 486.667 1126 486.667C1122.96 486.667 1120.44 487.75 1118.44 489.915C1116.43 492.081 1115.13 495.071 1114.53 498.897L1111.91 515.549C1111.86 516.193 1111.62 516.689 1111.18 517.035C1110.74 517.382 1110.18 517.55 1109.49 517.55C1108.8 517.55 1108.3 517.346 1108 516.929C1107.7 516.517 1107.62 515.917 1107.76 515.131L1110.73 496.478C1111.24 493.159 1110.98 490.697 1109.97 489.086C1108.96 487.47 1107.16 486.667 1104.58 486.667C1101.54 486.667 1099.02 487.75 1097.02 489.915C1095.01 492.081 1093.69 495.071 1093.04 498.897L1090.49 515.549C1090.26 516.885 1089.43 517.55 1088 517.55Z" fill="white"/>
<path d="M1154.33 478.858C1154.05 479.27 1153.72 479.502 1153.33 479.55C1152.94 479.594 1152.6 479.529 1152.33 479.342C1152.05 479.159 1151.88 478.894 1151.81 478.547C1151.74 478.201 1151.84 477.798 1152.12 477.337L1159.93 465.729C1160.3 465.178 1160.7 464.819 1161.14 464.659C1161.58 464.499 1161.99 464.463 1162.38 464.553C1162.77 464.646 1163.1 464.854 1163.35 465.178C1163.6 465.498 1163.73 465.879 1163.73 466.318C1163.73 466.754 1163.54 467.206 1163.18 467.663L1154.33 478.858ZM1146.38 517.55C1145.69 517.55 1145.2 517.346 1144.9 516.929C1144.6 516.517 1144.52 515.895 1144.66 515.065L1149.36 485.283C1149.5 484.546 1149.76 484.005 1150.15 483.659C1150.54 483.313 1151.08 483.139 1151.78 483.139C1152.42 483.139 1152.9 483.362 1153.23 483.797C1153.55 484.235 1153.64 484.849 1153.5 485.629L1148.8 515.478C1148.71 516.17 1148.46 516.689 1148.04 517.035C1147.63 517.382 1147.08 517.55 1146.38 517.55Z" fill="white"/>
<path d="M1170.71 517.692C1168.82 517.692 1167.05 517.275 1165.39 516.445C1163.73 515.616 1162.38 514.453 1161.34 512.957C1160.31 511.463 1159.79 509.723 1159.79 507.74C1159.79 505.392 1160.46 503.488 1161.79 502.037C1163.13 500.587 1165.2 499.54 1168.01 498.896C1170.82 498.253 1174.41 497.929 1178.79 497.929H1184.39L1183.91 501.039H1179.76C1175.84 501.039 1172.76 501.235 1170.5 501.625C1168.24 502.016 1166.64 502.695 1165.7 503.661C1164.75 504.629 1164.28 505.92 1164.28 507.531C1164.28 509.745 1165.02 511.427 1166.49 512.576C1167.97 513.729 1169.62 514.307 1171.47 514.307C1173.27 514.307 1174.94 513.903 1176.51 513.095C1178.08 512.292 1179.41 511.116 1180.52 509.572C1181.62 508.028 1182.36 506.151 1182.73 503.941L1184.04 495.511C1184.55 492.564 1184.2 490.341 1183.01 488.841C1181.81 487.347 1179.69 486.596 1176.65 486.596C1174.85 486.596 1173.16 486.769 1171.57 487.116C1169.98 487.461 1168.45 488.119 1166.97 489.085C1166.52 489.405 1166.07 489.556 1165.63 489.533C1165.19 489.512 1164.83 489.373 1164.56 489.116C1164.28 488.864 1164.12 488.553 1164.07 488.185C1164.03 487.816 1164.11 487.427 1164.31 487.009C1164.52 486.596 1164.9 486.251 1165.45 485.975C1167.16 484.915 1169.01 484.156 1171.02 483.695C1173.02 483.233 1175.01 483.003 1176.99 483.003C1179.9 483.003 1182.23 483.557 1184.01 484.661C1185.78 485.767 1187 487.347 1187.67 489.396C1188.34 491.447 1188.44 493.873 1187.98 496.687L1185.01 515.477C1184.92 516.171 1184.67 516.689 1184.28 517.035C1183.89 517.381 1183.35 517.551 1182.66 517.551C1182.06 517.551 1181.61 517.345 1181.31 516.929C1181.01 516.516 1180.91 515.917 1181 515.132L1181.97 508.981L1182.59 509.328C1181.99 511.219 1181.07 512.784 1179.83 514.027C1178.59 515.273 1177.17 516.192 1175.58 516.791C1173.99 517.391 1172.37 517.692 1170.71 517.692Z" fill="white"/>
</g>
</g>
<defs>
<clipPath id="clip0_24_2">
<rect width="1546.81" height="653.633" fill="white"/>
</clipPath>
</defs>
</svg>
