<?xml version="1.0" encoding="UTF-8" standalone="no"?>
<svg
   xmlns:dc="http://purl.org/dc/elements/1.1/"
   xmlns:cc="http://creativecommons.org/ns#"
   xmlns:rdf="http://www.w3.org/1999/02/22-rdf-syntax-ns#"
   xmlns:svg="http://www.w3.org/2000/svg"
   xmlns="http://www.w3.org/2000/svg"
   viewBox="0 0 1546.8134 653.6333"
   height="653.6333"
   width="1546.8134"
   xml:space="preserve"
   id="svg2"
   version="1.1"><metadata
     id="metadata8"><rdf:RDF><cc:Work
         rdf:about=""><dc:format>image/svg+xml</dc:format><dc:type
           rdf:resource="http://purl.org/dc/dcmitype/StillImage" /></cc:Work></rdf:RDF></metadata><defs
     id="defs6"><clipPath
       id="clipPath18"
       clipPathUnits="userSpaceOnUse"><path
         id="path16"
         d="M 0,490.225 H 1160.112 V 0 H 0 Z" /></clipPath></defs><g
     transform="matrix(1.3333333,0,0,-1.3333333,0,653.63333)"
     id="g10"><g
       id="g12"><g
         clip-path="url(#clipPath18)"
         id="g14"><g
           transform="translate(238.0004,279.939)"
           id="g20"><path
             id="path22"
             style="fill:#1f1f1f;fill-opacity:1;fill-rule:nonzero;stroke:none"
             d="m 0,0 c -1.396,-6.211 -3.867,-12.33 -7.415,-18.348 -3.55,-6.024 -7.767,-11.38 -12.645,-16.067 -4.881,-4.693 -10.239,-8.495 -16.067,-11.41 -5.833,-2.917 -11.726,-4.373 -17.683,-4.373 1.012,3.802 2.376,8.302 4.087,13.5 1.712,5.196 3.58,10.582 5.61,16.163 2.025,5.576 4.15,11.029 6.37,16.352 2.216,5.324 4.308,10.078 6.275,14.261 1.963,4.184 3.737,7.512 5.324,9.982 1.583,2.473 2.819,3.581 3.707,3.328 -0.507,1.395 -1.933,2.882 -4.278,4.47 -2.347,1.582 -4.469,2.882 -6.369,3.897 2.406,0.381 4.877,0.57 7.414,0.57 6.21,0 11.22,-0.92 15.022,-2.757 3.804,-1.838 6.656,-4.248 8.556,-7.225 C -0.19,19.363 0.857,15.941 1.047,12.075 1.236,8.207 0.887,4.183 0,0 m 10.078,19.11 c -2.281,5.387 -5.356,10.14 -9.221,14.262 -3.869,4.117 -8.433,7.383 -13.691,9.792 -5.261,2.406 -10.87,3.613 -16.829,3.613 -3.93,0 -8.08,-0.508 -12.455,-1.521 -4.372,-1.017 -8.526,-2.22 -12.454,-3.613 -3.93,-1.397 -7.385,-2.885 -10.363,-4.469 -2.979,-1.586 -5.039,-3.012 -6.18,-4.278 -1.14,-1.396 -1.681,-3.203 -1.616,-5.419 0.063,-2.22 0.381,-4.406 0.952,-6.56 0.569,-2.158 1.235,-4.058 1.995,-5.705 0.762,-1.649 1.266,-2.536 1.523,-2.661 0.251,1.9 1.234,3.769 2.946,5.609 1.711,1.836 3.899,3.579 6.56,5.228 2.662,1.646 5.734,3.139 9.223,4.47 3.484,1.331 7.193,2.376 11.123,3.136 -1.269,-1.777 -2.822,-4.629 -4.659,-8.556 -1.838,-3.93 -3.774,-8.399 -5.799,-13.406 -2.03,-5.009 -4.026,-10.238 -5.99,-15.686 -1.967,-5.453 -3.74,-10.619 -5.324,-15.498 -1.586,-4.88 -2.852,-9.16 -3.802,-12.834 -0.952,-3.679 -1.426,-6.213 -1.426,-7.606 0,-0.76 0.124,-1.649 0.379,-2.662 0.253,-1.017 0.571,-2.092 0.952,-3.233 -3.679,1.394 -6.342,3.517 -7.987,6.369 -1.649,2.854 -1.967,5.991 -0.95,9.413 -2.283,-2.917 -3.49,-6.116 -3.613,-9.602 -0.128,-3.488 0.761,-6.783 2.661,-9.887 1.902,-3.109 4.817,-5.704 8.747,-7.796 3.929,-2.093 8.872,-3.138 14.831,-3.138 7.987,0 15.812,1.933 23.483,5.799 7.669,3.865 14.515,8.905 20.536,15.117 6.021,6.209 10.839,13.215 14.452,21.012 3.612,7.795 5.419,15.559 5.419,23.292 0,5.956 -1.141,11.629 -3.423,17.018" /></g><g
           transform="translate(280.9716,314.9266)"
           id="g24"><path
             id="path26"
             style="fill:#1f1f1f;fill-opacity:1;fill-rule:nonzero;stroke:none"
             d="m 0,0 c 0.885,-0.889 1.774,-1.649 2.662,-2.281 0.886,-0.636 1.711,-0.952 2.471,-0.952 0.506,2.283 1.267,4.659 2.282,7.132 1.013,2.471 2.121,4.815 3.327,7.035 1.203,2.216 2.408,4.183 3.613,5.893 1.204,1.713 2.188,2.882 2.948,3.518 -0.381,0.506 -0.983,1.108 -1.807,1.807 -0.825,0.696 -1.744,1.361 -2.757,1.997 -1.017,0.632 -2.062,1.17 -3.136,1.615 -1.08,0.443 -2.125,0.666 -3.139,0.666 -0.76,0 -1.682,-0.571 -2.757,-1.711 C 2.629,23.578 1.582,22.024 0.571,20.06 -0.446,18.094 -1.301,15.812 -1.997,13.215 -2.696,10.616 -3.043,7.92 -3.043,5.133 -3.043,4.498 -2.757,3.707 -2.186,2.757 -1.617,1.807 -0.889,0.885 0,0" /></g><g
           transform="translate(423.3849,314.9266)"
           id="g28"><path
             id="path30"
             style="fill:#1f1f1f;fill-opacity:1;fill-rule:nonzero;stroke:none"
             d="m 0,0 c 0.885,-0.889 1.774,-1.649 2.662,-2.281 0.886,-0.636 1.711,-0.952 2.471,-0.952 0.506,2.283 1.267,4.659 2.282,7.132 1.013,2.471 2.121,4.815 3.327,7.035 1.203,2.216 2.408,4.183 3.613,5.893 1.204,1.713 2.188,2.882 2.948,3.518 -0.381,0.506 -0.983,1.108 -1.807,1.807 -0.825,0.696 -1.744,1.361 -2.757,1.997 -1.017,0.632 -2.062,1.17 -3.136,1.615 -1.08,0.443 -2.125,0.666 -3.139,0.666 -0.76,0 -1.682,-0.571 -2.757,-1.711 C 2.629,23.578 1.582,22.024 0.571,20.06 -0.446,18.094 -1.301,15.812 -1.997,13.215 -2.696,10.616 -3.043,7.92 -3.043,5.133 -3.043,4.498 -2.757,3.707 -2.186,2.757 -1.617,1.807 -0.889,0.885 0,0" /></g><g
           transform="translate(554.7728,314.9266)"
           id="g32"><path
             id="path34"
             style="fill:#1f1f1f;fill-opacity:1;fill-rule:nonzero;stroke:none"
             d="m 0,0 c 0.885,-0.889 1.774,-1.649 2.662,-2.281 0.886,-0.636 1.711,-0.952 2.471,-0.952 0.506,2.283 1.267,4.659 2.282,7.132 1.013,2.471 2.121,4.815 3.327,7.035 1.203,2.216 2.408,4.183 3.613,5.893 1.205,1.713 2.188,2.882 2.95,3.518 -0.383,0.506 -0.985,1.108 -1.809,1.807 -0.825,0.696 -1.743,1.361 -2.757,1.997 -1.017,0.632 -2.061,1.17 -3.136,1.615 -1.08,0.443 -2.125,0.666 -3.139,0.666 -0.76,0 -1.682,-0.571 -2.757,-1.711 C 2.629,23.578 1.582,22.024 0.571,20.06 -0.446,18.094 -1.301,15.812 -1.997,13.215 -2.696,10.616 -3.043,7.92 -3.043,5.133 -3.043,4.498 -2.757,3.707 -2.186,2.757 -1.617,1.807 -0.888,0.885 0,0" /></g><g
           transform="translate(731.3135,277.468)"
           id="g36"><path
             id="path38"
             style="fill:#1f1f1f;fill-opacity:1;fill-rule:nonzero;stroke:none"
             d="m 0,0 c -0.569,-1.777 -1.171,-3.612 -1.804,-5.514 -2.662,-5.453 -5.231,-10.586 -7.7,-15.403 -2.473,-4.819 -4.726,-9.002 -6.753,-12.55 -2.03,-3.549 -3.707,-6.369 -5.038,-8.461 -1.331,-2.092 -2.187,-3.136 -2.566,-3.136 -0.13,0.885 0.03,2.534 0.473,4.943 0.446,2.406 1.108,5.228 1.996,8.461 0.886,3.233 1.934,6.684 3.139,10.363 1.204,3.676 2.535,7.255 3.993,10.743 1.458,3.486 2.949,6.655 4.469,9.507 1.521,2.852 3.042,5.04 4.563,6.561 1.015,1.014 2.093,1.551 3.231,1.616 C -0.855,7.193 0.413,6.528 1.807,5.133 1.171,3.484 0.572,1.774 0,0 m -100.489,-23.864 c -1.52,-4.248 -3.108,-8.08 -4.752,-11.503 -1.65,-3.423 -3.328,-6.18 -5.038,-8.271 -1.714,-2.092 -3.205,-3.139 -4.47,-3.139 -1.267,0 -1.9,1.521 -1.9,4.565 0,2.662 0.473,6.208 1.425,10.647 0.951,4.436 2.153,9 3.614,13.691 1.454,4.687 3.105,9.093 4.942,13.215 1.837,4.118 3.644,7.255 5.421,9.413 -0.383,-1.902 -0.732,-3.741 -1.049,-5.514 -0.316,-1.778 -0.472,-3.362 -0.472,-4.754 0,-3.423 0.948,-5.325 2.852,-5.704 h 1.234 c 0.57,0 1.172,0.061 1.807,0.189 -0.888,-4.311 -2.093,-8.589 -3.614,-12.835 m -46.014,24.909 c -0.38,-1.331 -0.759,-2.694 -1.138,-4.088 -2.663,-5.704 -5.325,-11.124 -7.987,-16.257 -2.663,-5.135 -5.07,-9.603 -7.225,-13.406 -2.157,-3.802 -3.964,-6.816 -5.42,-9.032 -1.457,-2.218 -2.376,-3.326 -2.757,-3.326 -0.128,0.885 0,2.534 0.381,4.943 0.38,2.406 1.014,5.258 1.902,8.556 0.885,3.295 1.93,6.781 3.137,10.458 1.203,3.676 2.534,7.256 3.993,10.744 1.456,3.484 2.977,6.622 4.564,9.411 1.584,2.787 3.135,4.945 4.659,6.466 1.012,1.14 2.09,1.711 3.229,1.711 1.144,0 2.475,-0.697 3.993,-2.092 -0.506,-1.396 -0.945,-2.757 -1.331,-4.088 m -133.571,-21.2 c -1.331,-3.423 -2.696,-6.689 -4.089,-9.794 -1.397,-3.107 -2.852,-5.927 -4.374,-8.461 -1.521,-2.538 -2.98,-4.501 -4.373,-5.894 -2.281,-2.538 -5.072,-2.538 -8.366,0 3.927,9.506 8.015,18.188 12.265,26.049 4.244,7.859 7.825,14.133 10.742,18.826 -0.128,-2.158 -0.065,-4.217 0.19,-6.18 0.253,-1.967 0.762,-3.456 1.522,-4.469 -1.016,-3.298 -2.186,-6.655 -3.517,-10.077 m -93.169,25.193 c -1.586,-3.359 -3.298,-7.035 -5.133,-11.028 -1.39,-3.019 -2.78,-6.182 -4.169,-9.417 -0.042,-0.068 -0.066,-0.117 -0.108,-0.186 -1.649,-2.662 -3.551,-5.514 -5.705,-8.556 -2.157,-3.043 -4.438,-6.118 -6.846,-9.223 -2.409,-3.107 -4.691,-5.799 -6.845,-8.08 1.141,4.687 2.536,9.887 4.184,15.591 1.646,5.706 3.422,11.44 5.323,17.209 1.902,5.767 3.834,11.439 5.801,17.018 1.963,5.576 3.832,10.648 5.609,15.212 3.646,0 7.262,-0.068 10.858,-0.176 -0.62,-1.95 -1.013,-3.863 -1.067,-5.719 -0.065,-2.157 0.6,-3.678 1.996,-4.563 -1.016,-2.03 -2.314,-4.724 -3.898,-8.082 m -64.361,-50.673 c -0.636,-0.636 -1.807,-0.732 -3.518,-0.286 -1.712,0.442 -3.614,1.426 -5.706,2.948 -2.091,1.521 -4.183,3.548 -6.274,6.083 -0.587,0.711 -1.064,1.555 -1.586,2.345 2.012,4.16 3.687,8.067 5.012,11.727 0.872,2.409 1.504,4.548 1.941,6.469 0.175,-0.54 0.324,-1.075 0.528,-1.62 1.584,-4.25 3.261,-8.241 5.038,-11.98 1.774,-3.741 3.233,-7.005 4.373,-9.793 1.142,-2.788 1.205,-4.753 0.192,-5.893 M 25.195,-9.318 c -0.635,-1.649 -1.68,-3.802 -3.138,-6.464 -1.457,-2.663 -3.105,-5.453 -4.942,-8.367 -1.84,-2.918 -3.837,-5.832 -5.99,-8.747 -2.156,-2.917 -4.183,-5.514 -6.083,-7.796 1.011,6.59 2.376,12.834 4.086,18.73 1.711,5.895 3.421,11.218 5.135,15.972 1.711,4.754 3.358,8.747 4.942,11.979 1.584,3.233 2.822,5.544 3.707,6.94 -0.379,0.506 -1.108,1.141 -2.186,1.902 -1.078,0.76 -2.28,1.426 -3.611,1.996 -1.331,0.571 -2.729,1.075 -4.183,1.521 -1.461,0.443 -2.759,0.666 -3.9,0.666 -0.506,0 -1.138,-0.603 -1.9,-1.806 -0.759,-1.206 -1.588,-2.885 -2.473,-5.04 -1.777,1.395 -3.611,2.693 -5.514,3.899 -1.9,1.203 -3.93,2.122 -6.084,2.757 -2.788,0.761 -5.514,0 -8.176,-2.281 -2.663,-2.283 -5.168,-5.453 -7.511,-9.508 -2.346,-4.058 -4.47,-8.717 -6.37,-13.975 -1.521,-4.212 -2.757,-8.371 -3.833,-12.501 -1.06,-1.784 -2.173,-3.62 -3.392,-5.563 -2.03,-3.233 -4.183,-6.466 -6.462,-9.697 -2.283,-3.233 -4.44,-6.056 -6.466,-8.463 1.141,5.705 2.595,11.281 4.372,16.734 1.774,5.448 3.425,10.202 4.946,14.26 0.632,1.902 1.297,3.581 1.996,5.038 0.693,1.456 0.886,3.074 0.569,4.849 -0.319,1.774 -1.397,3.899 -3.231,6.371 -1.84,2.471 -4.978,5.671 -9.414,9.603 -1.016,0.885 -1.521,1.93 -1.521,3.136 0,1.203 0.286,2.378 0.855,3.518 0.572,1.141 1.331,2.25 2.283,3.328 0.952,1.075 1.87,1.932 2.755,2.567 -0.635,0.633 -1.491,1.393 -2.565,2.282 -1.079,0.885 -2.22,1.74 -3.422,2.567 -1.208,0.822 -2.409,1.488 -3.614,1.997 -1.204,0.504 -2.186,0.694 -2.948,0.569 -1.394,-0.255 -2.789,-1.301 -4.183,-3.137 -1.395,-1.838 -2.503,-3.898 -3.328,-6.18 -0.825,-2.281 -1.268,-4.501 -1.328,-6.655 -0.067,-2.157 0.599,-3.678 1.993,-4.563 -1.015,-2.03 -2.312,-4.724 -3.897,-8.082 -0.351,-0.744 -0.732,-1.562 -1.096,-2.337 -2.095,-0.599 -3.948,-1.12 -5.556,-1.561 -3.231,-0.887 -6.499,-1.458 -9.794,-1.711 l -0.569,4.373 c -0.888,1.394 -1.874,2.949 -2.948,4.659 -1.079,1.711 -2.253,3.295 -3.518,4.754 -1.268,1.456 -2.566,2.662 -3.897,3.612 -1.331,0.952 -2.696,1.426 -4.09,1.426 -2.789,0 -5.484,-0.95 -8.08,-2.852 -2.599,-1.901 -5.038,-4.439 -7.321,-7.605 -2.28,-3.17 -4.406,-6.783 -6.37,-10.839 -1.967,-4.059 -3.611,-8.209 -4.942,-12.455 -0.161,-0.513 -0.278,-1.02 -0.43,-1.532 -0.716,-1.174 -1.442,-2.357 -2.229,-3.601 -1.97,-3.108 -4.12,-6.245 -6.469,-9.413 -2.343,-3.17 -4.593,-6.022 -6.749,-8.556 1.145,4.815 2.569,10.14 4.28,15.972 1.71,5.829 3.547,11.756 5.517,17.779 1.964,6.019 3.96,11.914 5.984,17.683 2.03,5.767 3.993,10.964 5.897,15.593 1.903,4.625 3.614,8.491 5.131,11.599 1.524,3.105 2.729,5.038 3.614,5.799 -0.253,0.506 -0.918,1.108 -1.996,1.807 -1.079,0.695 -2.283,1.393 -3.614,2.091 -1.332,0.696 -2.689,1.265 -4.087,1.711 -1.398,0.443 -2.596,0.666 -3.614,0.666 -0.506,0 -1.331,-1.045 -2.469,-3.137 -1.139,-2.092 -2.503,-4.945 -4.087,-8.558 -1.591,-3.612 -3.268,-7.828 -5.039,-12.644 -1.777,-4.819 -3.614,-9.954 -5.517,-15.401 -1.644,1.392 -3.421,2.662 -5.325,3.802 -1.897,1.141 -3.867,2.027 -5.89,2.662 -2.789,0.761 -5.516,0 -8.178,-2.281 -2.663,-2.283 -5.167,-5.453 -7.511,-9.508 -2.348,-4.058 -4.468,-8.717 -6.37,-13.975 -1.589,-4.396 -2.877,-8.736 -3.979,-13.043 -0.927,-1.591 -1.906,-3.227 -2.96,-4.926 -1.966,-3.17 -4.088,-6.371 -6.369,-9.603 -2.281,-3.233 -4.439,-6.055 -6.464,-8.461 1.264,6.717 2.818,13.149 4.657,19.3 1.837,6.147 3.709,11.723 5.611,16.733 1.9,5.005 3.674,9.221 5.323,12.644 1.645,3.423 2.915,5.829 3.803,7.225 -0.381,0.506 -1.046,1.141 -1.996,1.902 -0.952,0.76 -2.062,1.426 -3.328,1.996 -1.268,0.571 -2.599,1.075 -3.994,1.521 -1.396,0.443 -2.662,0.666 -3.802,0.666 -0.635,0 -1.521,-1.14 -2.662,-3.423 -1.142,-2.281 -2.443,-5.228 -3.899,-8.84 -1.457,-3.614 -2.947,-7.768 -4.467,-12.455 -1.132,-3.493 -2.172,-7.008 -3.164,-10.535 -1.333,-2.446 -2.861,-5.041 -4.632,-7.815 -1.902,-2.98 -3.899,-5.927 -5.99,-8.842 -2.092,-2.917 -4.153,-5.514 -6.18,-7.796 1.013,6.465 2.311,12.55 3.899,18.254 1.582,5.705 3.231,10.774 4.943,15.211 1.711,4.437 3.295,8.207 4.754,11.315 1.456,3.105 2.629,5.353 3.518,6.749 -0.381,0.506 -1.112,1.142 -2.187,1.902 -1.078,0.761 -2.283,1.426 -3.614,1.997 -1.329,0.571 -2.727,1.075 -4.183,1.521 -1.458,0.442 -2.757,0.665 -3.897,0.665 -1.017,0 -2.473,-2.186 -4.374,-6.559 -1.901,-4.374 -3.803,-9.667 -5.704,-15.877 -2.663,-5.453 -5.229,-10.586 -7.701,-15.403 -2.473,-4.819 -4.724,-9.002 -6.751,-12.55 -2.028,-3.549 -3.707,-6.369 -5.038,-8.461 -1.331,-2.092 -2.187,-3.136 -2.568,-3.136 -0.128,0.885 0.064,2.66 0.571,5.322 0.506,2.663 1.298,5.829 2.378,9.508 1.075,3.676 2.281,7.606 3.612,11.789 1.331,4.183 2.757,8.302 4.278,12.36 1.482,3.952 2.934,7.562 4.355,10.853 0.296,0.431 0.557,0.87 0.78,1.317 -0.075,-0.022 -0.147,-0.039 -0.223,-0.061 1.289,2.876 2.507,5.201 3.644,6.905 -0.254,0.381 -0.825,0.918 -1.71,1.617 -0.889,0.696 -1.997,1.393 -3.328,2.092 -1.331,0.695 -2.727,1.264 -4.183,1.71 -1.46,0.443 -2.757,0.666 -3.899,0.666 -0.636,0 -1.616,-1.301 -2.947,-3.897 -1.331,-2.601 -2.757,-5.929 -4.278,-9.984 -0.404,-1.08 -0.818,-2.29 -1.227,-3.442 -2.899,-0.486 -5.743,-0.847 -8.47,-0.931 0.253,3.167 0.191,5.515 -0.19,7.036 -0.254,1.013 -0.888,2.154 -1.902,3.422 -1.015,1.267 -2.186,2.44 -3.517,3.518 -1.331,1.075 -2.633,1.997 -3.897,2.757 -1.27,0.76 -2.22,1.141 -2.854,1.141 -1.775,0 -4.215,-2.03 -7.32,-6.085 -3.108,-4.058 -6.369,-9.444 -9.792,-16.161 2.025,5.956 4.055,11.755 6.085,17.398 2.025,5.639 3.992,10.742 5.894,15.306 1.902,4.563 3.581,8.333 5.038,11.313 1.456,2.977 2.631,4.849 3.518,5.61 -0.255,0.505 -0.92,1.108 -1.995,1.807 -1.08,0.695 -2.283,1.392 -3.614,2.091 -1.331,0.696 -2.694,1.266 -4.089,1.711 -1.396,0.444 -2.599,0.665 -3.612,0.665 -0.636,0 -1.777,-1.649 -3.423,-4.943 -1.649,-3.298 -3.551,-7.671 -5.704,-13.12 -2.156,-5.451 -4.469,-11.598 -6.94,-18.444 -2.473,-6.845 -4.787,-13.852 -6.94,-21.012 -0.792,-2.628 -1.52,-5.203 -2.251,-7.78 -0.456,-0.911 -0.959,-1.881 -1.55,-2.962 -1.521,-2.791 -3.266,-5.771 -5.23,-8.937 -1.966,-3.17 -4.088,-6.371 -6.369,-9.603 -2.281,-3.233 -4.439,-6.055 -6.464,-8.461 1.264,6.717 2.818,13.149 4.657,19.3 1.837,6.147 3.709,11.723 5.611,16.733 1.9,5.005 3.674,9.221 5.323,12.644 1.645,3.423 2.915,5.829 3.803,7.225 -0.381,0.506 -1.046,1.141 -1.996,1.902 -0.952,0.76 -2.062,1.426 -3.328,1.996 -1.268,0.571 -2.599,1.075 -3.994,1.521 -1.396,0.443 -2.662,0.666 -3.802,0.666 -0.635,0 -1.521,-1.14 -2.662,-3.423 -1.142,-2.281 -2.443,-5.228 -3.899,-8.84 -1.457,-3.614 -2.947,-7.768 -4.467,-12.455 -1.085,-3.347 -2.083,-6.714 -3.039,-10.092 -0.035,-0.061 -0.063,-0.114 -0.098,-0.176 -1.586,-2.791 -3.393,-5.801 -5.419,-9.032 -2.029,-3.233 -4.183,-6.466 -6.465,-9.697 -2.281,-3.233 -4.439,-6.056 -6.464,-8.463 1.14,5.705 2.596,11.281 4.373,16.734 1.773,5.448 3.422,10.202 4.943,14.26 0.634,1.902 1.3,3.581 1.997,5.038 0.696,1.456 0.885,3.074 0.571,4.849 -0.318,1.774 -1.396,3.899 -3.233,6.371 -1.839,2.471 -4.977,5.671 -9.412,9.603 -1.016,0.885 -1.522,1.93 -1.522,3.136 0,1.203 0.286,2.378 0.857,3.518 0.395,0.791 0.916,1.561 1.494,2.322 1.106,-0.097 2.193,-0.198 3.165,-0.325 2.408,-0.318 4.246,-0.666 5.514,-1.045 0.125,0.379 0.095,1.045 -0.095,1.995 -0.189,0.952 -0.476,1.932 -0.855,2.948 -0.381,1.014 -0.855,1.964 -1.426,2.852 -0.571,0.886 -1.173,1.456 -1.807,1.711 -1.291,0.538 -4.04,0.858 -8.074,0.985 -0.828,0.497 -1.654,0.948 -2.48,1.298 -1.207,0.504 -2.187,0.694 -2.947,0.569 -0.999,-0.182 -1.997,-0.788 -2.994,-1.78 -3.755,-0.004 -7.802,-0.041 -12.216,-0.12 1.14,2.534 2.186,4.592 3.136,6.179 0.952,1.583 1.742,2.691 2.378,3.327 -0.256,0.506 -0.922,1.11 -1.997,1.807 -1.078,0.695 -2.283,1.394 -3.612,2.091 -1.331,0.696 -2.696,1.267 -4.088,1.712 -1.398,0.443 -2.601,0.666 -3.614,0.666 -0.636,0 -1.711,-1.492 -3.232,-4.469 -1.521,-2.98 -3.233,-6.941 -5.135,-11.884 -8.241,-0.256 -14.388,-0.541 -18.443,-0.855 -4.058,-0.318 -7.351,-0.541 -9.889,-0.666 -0.504,-0.636 0.034,-1.712 1.618,-3.233 1.585,-1.521 3.832,-2.409 6.749,-2.662 0.885,-0.128 1.712,-0.223 2.472,-0.285 0.761,-0.066 1.711,-0.095 2.852,-0.095 h 4.373 7.227 c -1.902,-5.071 -3.869,-10.586 -5.896,-16.543 -0.38,-1.116 -0.697,-2.247 -1.068,-3.366 -0.62,-0.177 -1.227,-0.355 -1.877,-0.532 -2.091,-0.571 -4.216,-1.112 -6.369,-1.616 0.632,1.9 0.95,3.232 0.95,3.992 0,1.013 -0.731,2.313 -2.187,3.899 -1.459,1.584 -3.233,3.138 -5.324,4.659 -2.092,1.52 -4.217,2.818 -6.37,3.898 -2.156,1.075 -3.869,1.616 -5.135,1.616 -1.268,0 -2.947,-0.541 -5.038,-1.616 -2.092,-1.08 -4.153,-2.662 -6.18,-4.754 -2.028,-2.091 -3.836,-4.692 -5.42,-7.797 -1.585,-3.106 -2.441,-6.749 -2.565,-10.932 -0.055,-1.666 0.079,-3.366 0.332,-5.088 -0.638,-1.427 -1.503,-3.149 -2.612,-5.18 -1.521,-2.791 -3.266,-5.771 -5.23,-8.937 -1.967,-3.17 -4.088,-6.371 -6.369,-9.603 -2.282,-3.233 -4.44,-6.055 -6.465,-8.461 1.265,6.717 2.819,13.149 4.658,19.3 1.837,6.147 3.709,11.723 5.61,16.733 1.901,5.005 3.674,9.221 5.323,12.644 1.646,3.423 2.916,5.829 3.804,7.225 -0.381,0.506 -1.046,1.141 -1.997,1.902 -0.951,0.76 -2.061,1.426 -3.327,1.996 -1.268,0.571 -2.6,1.075 -3.994,1.521 -1.396,0.443 -2.662,0.666 -3.802,0.666 -0.636,0 -1.521,-1.14 -2.662,-3.423 -1.142,-2.281 -2.443,-5.228 -3.899,-8.84 -1.458,-3.614 -2.947,-7.768 -4.468,-12.455 -1.52,-4.692 -2.918,-9.413 -4.183,-14.167 -1.269,-4.754 -2.314,-9.349 -3.138,-13.786 -0.825,-4.439 -1.301,-8.304 -1.426,-11.599 0,-1.015 0.411,-2.281 1.236,-3.802 0.822,-1.521 1.836,-2.98 3.042,-4.374 1.203,-1.396 2.473,-2.599 3.804,-3.613 1.331,-1.015 2.501,-1.521 3.517,-1.521 1.142,0 2.693,1.172 4.659,3.518 1.964,2.344 3.992,5.291 6.084,8.842 1.11,1.883 2.21,3.871 3.303,5.934 0.455,-1.966 1.007,-3.916 1.734,-5.839 1.266,-3.36 2.881,-6.275 4.848,-8.747 1.965,-2.471 4.152,-3.708 6.561,-3.708 3.167,0 6.052,0.791 8.651,2.376 2.597,1.585 4.817,3.486 6.656,5.706 1.835,2.216 3.294,4.498 4.373,6.846 1.076,2.342 1.679,4.278 1.807,5.798 0.124,2.155 -0.476,4.626 -1.807,7.417 -1.332,2.787 -2.789,5.609 -4.373,8.461 -1.588,2.852 -2.98,5.704 -4.183,8.556 -1.207,2.852 -1.616,5.482 -1.237,7.892 0.253,1.773 0.824,3.484 1.713,5.133 0.885,1.646 1.93,3.072 3.136,4.278 1.203,1.205 2.406,2.188 3.612,2.948 1.205,0.761 2.313,1.14 3.328,1.14 0.253,-0.76 0.411,-1.933 0.476,-3.517 0.062,-1.586 -0.161,-3.393 -0.665,-5.42 -2.157,-0.379 -3.869,-0.569 -5.135,-0.569 -0.38,-0.381 -0.664,-1.364 -0.856,-2.948 -0.189,-1.586 -0.159,-3.328 0.095,-5.228 0.253,-1.902 0.666,-3.679 1.237,-5.325 0.57,-1.649 1.426,-2.727 2.567,-3.233 1.266,0 2.662,0.982 4.183,2.948 1.521,1.964 2.977,4.214 4.373,6.749 3.766,1.434 7.246,3.202 10.473,5.271 -0.823,-2.614 -1.714,-5.212 -2.488,-7.836 -1.777,-6.024 -3.328,-11.918 -4.659,-17.685 -1.331,-5.769 -2.251,-10.934 -2.757,-15.496 -0.126,-1.27 0.286,-2.727 1.236,-4.375 0.952,-1.649 2.06,-3.231 3.328,-4.753 1.267,-1.521 2.534,-2.758 3.802,-3.708 1.267,-0.95 2.155,-1.426 2.663,-1.426 1.013,0 2.534,1.203 4.564,3.613 2.027,2.407 4.213,5.386 6.559,8.937 0.055,0.083 0.109,0.177 0.163,0.261 -0.159,-0.848 -0.259,-1.592 -0.259,-2.163 0,-1.14 0.381,-2.346 1.141,-3.613 0.76,-1.267 1.712,-2.409 2.852,-3.422 1.142,-1.015 2.311,-1.872 3.518,-2.566 1.203,-0.699 2.249,-1.047 3.138,-1.047 -0.509,1.393 -0.509,3.581 0,6.56 0.504,2.978 1.361,6.466 2.567,10.459 1.203,3.992 2.629,8.272 4.278,12.834 1.646,4.564 3.328,9.062 5.039,13.501 1.71,4.436 3.422,8.651 5.133,12.645 1.712,3.993 3.263,7.382 4.659,10.173 1.774,-1.396 3.233,-2.822 4.374,-4.278 1.14,-1.459 1.836,-2.696 2.092,-3.709 -1.522,-4.183 -3.077,-8.4 -4.659,-12.644 -1.587,-4.248 -3.043,-8.337 -4.374,-12.265 -1.33,-3.93 -2.471,-7.638 -3.422,-11.124 -0.951,-3.487 -1.427,-6.559 -1.427,-9.221 0,-0.761 0.506,-1.872 1.522,-3.328 1.014,-1.459 2.217,-2.919 3.613,-4.373 1.392,-1.459 2.882,-2.695 4.467,-3.709 1.584,-1.015 2.882,-1.521 3.899,-1.521 1.141,0 2.692,1.172 4.659,3.518 1.963,2.344 3.993,5.291 6.085,8.842 1.577,2.675 3.129,5.591 4.67,8.628 -0.422,-2.827 -0.688,-5.399 -0.775,-7.678 0,-1.015 0.411,-2.281 1.237,-3.802 0.822,-1.521 1.835,-2.98 3.041,-4.374 1.203,-1.396 2.473,-2.599 3.804,-3.613 1.331,-1.015 2.501,-1.521 3.518,-1.521 1.141,0 2.692,1.172 4.659,3.518 1.963,2.344 3.991,5.291 6.083,8.842 1.607,2.726 3.19,5.701 4.76,8.803 -0.431,-2.354 -0.799,-4.615 -1.054,-6.711 -0.127,-1.27 0.286,-2.728 1.236,-4.373 0.952,-1.649 2.06,-3.203 3.328,-4.659 1.266,-1.459 2.534,-2.663 3.802,-3.613 1.266,-0.951 2.155,-1.426 2.662,-1.426 0,1.646 0.192,3.738 0.571,6.275 1.646,-1.27 3.328,-2.409 5.038,-3.423 1.713,-1.016 3.52,-1.777 5.42,-2.283 3.168,-0.888 6.338,0.125 9.508,3.044 3.166,2.913 6.179,6.845 9.031,11.789 2.852,4.943 5.355,10.458 7.511,16.543 2.155,6.085 3.804,11.85 4.944,17.303 2.306,0.523 4.667,1.183 7.063,1.925 -0.169,-0.531 -0.334,-1.003 -0.504,-1.546 -1.585,-5.071 -2.947,-10.076 -4.088,-15.02 -1.14,-4.945 -1.967,-9.541 -2.471,-13.786 -0.509,-4.249 -0.446,-7.7 0.19,-10.363 0.379,-1.902 1.108,-3.551 2.186,-4.943 1.075,-1.398 2.25,-2.538 3.518,-3.423 1.266,-0.889 2.472,-1.523 3.612,-1.902 1.142,-0.381 2.027,-0.571 2.662,-0.571 1.142,0 2.378,0.791 3.709,2.376 1.331,1.585 2.691,3.676 4.089,6.277 1.392,2.596 2.785,5.481 4.183,8.651 1.392,3.166 2.724,6.338 3.992,9.507 -0.255,-1.902 -0.475,-3.709 -0.666,-5.419 -0.19,-1.712 -0.285,-3.328 -0.285,-4.849 0,-1.016 0.443,-2.281 1.332,-3.804 0.885,-1.52 1.963,-2.978 3.233,-4.372 1.264,-1.396 2.595,-2.599 3.991,-3.613 1.395,-1.016 2.663,-1.521 3.804,-1.521 1.142,0 2.629,1.109 4.468,3.327 1.837,2.218 3.77,4.975 5.8,8.271 1.081,1.757 2.13,3.607 3.157,5.526 -0.366,-2.574 -0.606,-4.94 -0.686,-7.047 0,-1.015 0.411,-2.281 1.237,-3.802 0.822,-1.521 1.835,-2.98 3.041,-4.374 1.203,-1.396 2.473,-2.599 3.804,-3.613 1.331,-1.015 2.501,-1.521 3.518,-1.521 1.141,0 2.692,1.172 4.659,3.518 1.963,2.344 3.991,5.291 6.083,8.842 1.217,2.065 2.421,4.271 3.617,6.552 -0.185,-3.332 -0.039,-6.043 0.47,-8.073 0.379,-1.902 1.108,-3.551 2.186,-4.943 1.075,-1.398 2.25,-2.538 3.518,-3.423 1.266,-0.889 2.472,-1.523 3.612,-1.902 1.142,-0.381 2.027,-0.571 2.662,-0.571 1.142,0 2.378,0.791 3.709,2.376 1.331,1.585 2.691,3.676 4.089,6.277 1.392,2.596 2.785,5.481 4.183,8.651 1.391,3.166 2.722,6.399 3.993,9.697 -0.379,-1.649 -0.665,-3.233 -0.858,-4.754 -0.187,-1.521 -0.413,-2.98 -0.666,-4.373 -0.126,-1.269 0.286,-2.727 1.238,-4.372 0.952,-1.649 2.09,-3.234 3.421,-4.754 1.331,-1.523 2.629,-2.758 3.9,-3.709 1.265,-0.95 2.157,-1.426 2.663,-1.426 1.138,0 2.689,1.203 4.659,3.612 1.963,2.408 4.02,5.388 6.176,8.937 1.15,1.891 2.278,3.899 3.391,5.99 -0.06,-0.99 -0.159,-2.027 -0.159,-2.946 0,-3.298 0.695,-6.119 2.089,-8.462 1.395,-2.347 3.075,-4.344 5.042,-5.99 1.964,-1.649 3.994,-2.852 6.084,-3.612 2.093,-0.761 3.77,-1.142 5.038,-1.142 3.042,0 6.087,1.551 9.128,4.659 3.042,3.105 5.827,7.097 8.367,11.979 2.532,4.879 4.689,10.235 6.466,16.067 1.773,5.83 2.912,11.41 3.421,16.734 2.536,0.761 5.038,1.711 7.511,2.852 1.931,0.89 3.684,1.831 5.343,2.8 -0.389,-0.843 -0.762,-1.642 -1.163,-2.515 -1.837,-3.994 -3.678,-8.177 -5.515,-12.55 -1.837,-4.372 -3.487,-8.494 -4.942,-12.359 -1.457,-3.869 -2.662,-7.322 -3.614,-10.363 -0.948,-3.042 -1.424,-5.262 -1.424,-6.656 0,-1.14 0.379,-2.346 1.141,-3.613 0.759,-1.267 1.711,-2.409 2.852,-3.422 1.139,-1.015 2.31,-1.872 3.518,-2.566 1.201,-0.699 2.246,-1.047 3.135,-1.047 -0.506,1.393 -0.506,3.581 0,6.56 0.506,2.978 1.361,6.466 2.569,10.459 1.201,3.992 2.629,8.272 4.276,12.834 1.648,4.564 3.328,9.062 5.042,13.501 1.711,4.436 3.421,8.651 5.132,12.645 1.71,3.993 3.261,7.382 4.659,10.173 1.773,-1.396 3.231,-2.822 4.373,-4.278 1.141,-1.459 1.836,-2.696 2.093,-3.709 -1.521,-4.183 -3.075,-8.4 -4.659,-12.644 -1.588,-4.248 -3.042,-8.337 -4.373,-12.265 -1.331,-3.93 -2.473,-7.638 -3.425,-11.124 -0.948,-3.487 -1.424,-6.559 -1.424,-9.221 0,-0.761 0.503,-1.872 1.521,-3.328 1.012,-1.459 2.216,-2.919 3.611,-4.373 1.394,-1.459 2.882,-2.695 4.469,-3.709 1.584,-1.015 2.882,-1.521 3.897,-1.521 1.142,0 2.692,1.172 4.659,3.518 1.964,2.344 3.993,5.291 6.087,8.842 1.366,2.32 2.716,4.828 4.057,7.421 -0.263,-3.73 -0.143,-6.742 0.409,-8.942 0.379,-1.902 1.108,-3.551 2.186,-4.943 1.075,-1.398 2.25,-2.538 3.518,-3.423 1.264,-0.889 2.472,-1.523 3.614,-1.902 1.141,-0.381 2.026,-0.571 2.662,-0.571 1.138,0 2.376,0.791 3.707,2.376 1.332,1.585 2.693,3.676 4.087,6.277 1.394,2.596 2.789,5.481 4.183,8.651 1.395,3.166 2.662,6.338 3.804,9.507 -0.256,-1.902 -0.446,-3.74 -0.569,-5.514 -0.13,-1.777 -0.19,-3.361 -0.19,-4.754 0,-1.016 0.443,-2.281 1.328,-3.804 0.889,-1.52 1.967,-2.978 3.235,-4.372 1.264,-1.396 2.595,-2.599 3.993,-3.613 1.391,-1.016 2.662,-1.521 3.801,-1.521 1.141,0 2.632,1.109 4.469,3.327 1.837,2.218 3.77,4.975 5.8,8.271 2.027,3.296 3.961,6.875 5.801,10.744 1.834,3.865 3.354,7.511 4.562,10.934 1.202,3.423 1.964,6.336 2.283,8.747 0.313,2.406 -0.096,3.737 -1.238,3.992" /></g><g
           transform="translate(841.3132,296.768)"
           id="g40"><path
             id="path42"
             style="fill:#1f1f1f;fill-opacity:1;fill-rule:nonzero;stroke:none"
             d="m 0,0 c -3.168,-3.993 -7.162,-9.223 -11.977,-15.688 1.265,-0.256 3.707,0.381 7.318,1.902 3.614,1.521 7.351,3.39 11.218,5.609 3.867,2.217 7.322,4.626 10.363,7.225 3.045,2.598 4.629,4.849 4.756,6.751 -0.509,3.423 -1.777,6.622 -3.804,9.602 -2.03,2.977 -4.25,5.545 -6.656,7.701 -2.409,2.155 -4.722,3.865 -6.938,5.135 -2.22,1.265 -3.774,1.9 -4.659,1.9 -5.451,0 -11.189,-0.888 -17.209,-2.662 C -23.611,25.7 -29.156,22.974 -34.227,19.3 -39.299,15.621 -43.449,11.029 -46.68,5.514 -49.911,0 -51.406,-6.561 -51.149,-14.167 c 0,-3.93 1.015,-7.353 3.041,-10.268 2.027,-2.917 4.533,-5.579 7.511,-7.985 2.979,-2.41 6.18,-4.629 9.604,-6.656 3.422,-2.028 6.526,-4.088 9.319,-6.18 2.785,-2.091 5.038,-4.311 6.748,-6.654 1.711,-2.348 2.31,-5.04 1.808,-8.082 -0.383,-2.156 -1.521,-3.993 -3.425,-5.514 -1.9,-1.521 -4.216,-2.504 -6.939,-2.947 -2.728,-0.446 -5.674,-0.128 -8.842,0.95 -3.171,1.075 -6.213,3.105 -9.128,6.085 -2.919,2.977 -5.514,7.065 -7.794,12.265 -2.283,5.195 -3.934,11.789 -4.945,19.774 -0.636,-0.254 -1.398,-0.95 -2.283,-2.091 -0.889,-1.14 -1.744,-2.471 -2.566,-3.994 -0.825,-1.52 -1.554,-3.136 -2.186,-4.848 -0.636,-1.711 -1.015,-3.326 -1.142,-4.849 -0.379,-3.423 0.19,-7.1 1.711,-11.029 1.521,-3.93 3.707,-7.605 6.562,-11.028 2.852,-3.423 6.207,-6.34 10.077,-8.746 3.864,-2.408 7.954,-3.737 12.263,-3.993 8.24,-0.506 15.402,2.121 21.489,7.89 6.083,5.767 10.01,14.357 11.787,25.766 0.383,2.663 -0.446,5.005 -2.469,7.035 -2.03,2.027 -4.659,3.899 -7.894,5.61 -3.232,1.71 -6.782,3.327 -10.646,4.848 -3.87,1.521 -7.418,3.105 -10.649,4.754 -3.232,1.646 -5.864,3.484 -7.891,5.514 -2.03,2.027 -2.792,4.436 -2.283,7.225 0.762,5.069 2.819,9.285 6.18,12.646 3.358,3.356 7.255,6.052 11.694,8.08 4.437,2.027 9.032,3.486 13.785,4.375 4.755,0.885 8.968,1.331 12.645,1.331 2.283,0 3.645,-0.381 4.09,-1.142 0.443,-0.76 0,-2.281 -1.331,-4.564 C 5.421,7.13 3.168,3.992 0,0" /></g><g
           transform="translate(912.806,296.768)"
           id="g44"><path
             id="path46"
             style="fill:#1f1f1f;fill-opacity:1;fill-rule:nonzero;stroke:none"
             d="m 0,0 c -3.168,-3.993 -7.162,-9.223 -11.977,-15.688 1.265,-0.256 3.707,0.381 7.318,1.902 3.614,1.521 7.351,3.39 11.218,5.609 3.867,2.217 7.322,4.626 10.363,7.225 3.045,2.598 4.629,4.849 4.756,6.751 -0.509,3.423 -1.777,6.622 -3.804,9.602 -2.03,2.977 -4.25,5.545 -6.656,7.701 -2.409,2.155 -4.722,3.865 -6.938,5.135 -2.22,1.265 -3.774,1.9 -4.659,1.9 -5.451,0 -11.189,-0.888 -17.209,-2.662 C -23.611,25.7 -29.156,22.974 -34.227,19.3 -39.299,15.621 -43.449,11.029 -46.68,5.514 -49.911,0 -51.406,-6.561 -51.149,-14.167 c 0,-3.93 1.015,-7.353 3.041,-10.268 2.027,-2.917 4.533,-5.579 7.511,-7.985 2.979,-2.41 6.18,-4.629 9.605,-6.656 3.421,-2.028 6.525,-4.088 9.318,-6.18 2.785,-2.091 5.038,-4.311 6.748,-6.654 1.711,-2.348 2.31,-5.04 1.808,-8.082 -0.383,-2.156 -1.521,-3.993 -3.425,-5.514 -1.9,-1.521 -4.216,-2.504 -6.939,-2.947 -2.728,-0.446 -5.674,-0.128 -8.842,0.95 -3.171,1.075 -6.213,3.105 -9.128,6.085 -2.919,2.977 -5.514,7.065 -7.794,12.265 -2.283,5.195 -3.933,11.789 -4.945,19.774 -0.636,-0.254 -1.398,-0.95 -2.283,-2.091 -0.889,-1.14 -1.744,-2.471 -2.566,-3.994 -0.825,-1.52 -1.554,-3.136 -2.186,-4.848 -0.636,-1.711 -1.015,-3.326 -1.142,-4.849 -0.379,-3.423 0.19,-7.1 1.711,-11.029 1.521,-3.93 3.707,-7.605 6.562,-11.028 2.852,-3.423 6.207,-6.34 10.077,-8.746 3.864,-2.408 7.954,-3.737 12.263,-3.993 8.24,-0.506 15.402,2.121 21.489,7.89 6.083,5.767 10.01,14.357 11.787,25.766 0.383,2.663 -0.446,5.005 -2.469,7.035 -2.03,2.027 -4.659,3.899 -7.894,5.61 -3.231,1.71 -6.782,3.327 -10.646,4.848 -3.87,1.521 -7.418,3.105 -10.649,4.754 -3.232,1.646 -5.864,3.484 -7.891,5.514 -2.03,2.027 -2.792,4.436 -2.283,7.225 0.763,5.069 2.819,9.285 6.18,12.646 3.358,3.356 7.255,6.052 11.694,8.08 4.437,2.027 9.032,3.486 13.785,4.375 4.755,0.885 8.968,1.331 12.645,1.331 2.283,0 3.645,-0.381 4.09,-1.142 0.443,-0.76 0,-2.281 -1.331,-4.564 C 5.421,7.13 3.168,3.992 0,0" /></g><g
           transform="translate(981.1606,289.4467)"
           id="g48"><path
             id="path50"
             style="fill:#1f1f1f;fill-opacity:1;fill-rule:nonzero;stroke:none"
             d="m 0,0 c -1.584,-4.183 -3.201,-7.86 -4.849,-11.029 2.157,0 4.533,0.98 7.132,2.947 2.596,1.965 5.038,4.405 7.321,7.322 2.283,2.915 4.183,6.115 5.704,9.602 1.521,3.484 2.283,6.751 2.283,9.792 0,2.282 -0.922,4.531 -2.759,6.751 -1.837,2.216 -4.056,4.213 -6.655,5.99 -2.599,1.774 -5.295,3.2 -8.081,4.278 -2.788,1.075 -5.071,1.616 -6.845,1.616 -4.439,0 -8.935,-1.491 -13.501,-4.468 -4.563,-2.98 -8.872,-6.878 -12.929,-11.694 -4.06,-4.82 -7.797,-10.301 -11.218,-16.448 -3.425,-6.15 -6.277,-12.425 -8.556,-18.824 -2.283,-6.403 -3.837,-12.583 -4.659,-18.54 -0.826,-5.96 -0.732,-11.218 0.283,-15.782 0.762,-3.804 2.123,-7.197 4.09,-10.174 1.963,-2.98 4.246,-5.514 6.845,-7.605 2.596,-2.092 5.355,-3.678 8.27,-4.754 2.915,-1.075 5.704,-1.616 8.366,-1.616 2.915,0 5.927,0.541 9.032,1.616 3.105,1.076 6.087,2.662 8.939,4.754 2.852,2.091 5.514,4.625 7.987,7.605 2.469,2.977 4.466,6.305 5.99,9.984 1.011,2.153 1.328,4.403 0.948,6.749 -0.379,2.345 -1.078,4.405 -2.09,6.18 1.774,0.253 3.518,0.411 5.228,0.476 1.711,0.063 3.391,0.03 5.039,-0.095 0,0.632 -0.034,1.488 -0.093,2.567 -0.067,1.075 -0.193,2.122 -0.383,3.137 -0.19,1.013 -0.506,1.902 -0.949,2.662 -0.445,0.761 -0.985,1.142 -1.617,1.142 -1.777,0 -4.503,-0.095 -8.177,-0.286 -3.677,-0.19 -7.544,-0.35 -11.597,-0.475 -4.06,-0.128 -7.864,-0.191 -11.411,-0.191 -3.551,0 -6.15,0.191 -7.794,0.571 -0.13,-1.017 -0.034,-2.282 0.283,-3.802 0.316,-1.523 0.762,-3.014 1.331,-4.47 0.572,-1.459 1.204,-2.694 1.903,-3.707 0.696,-1.017 1.361,-1.521 1.997,-1.521 2.532,0 5.514,0.346 8.935,1.045 3.425,0.696 7.035,1.361 10.839,1.997 -1.397,-3.17 -3.075,-6.275 -5.038,-9.317 -1.967,-3.043 -4.12,-5.77 -6.466,-8.176 -2.346,-2.41 -4.786,-4.345 -7.322,-5.801 -2.535,-1.457 -5.008,-2.186 -7.414,-2.186 -5.198,0 -8.653,2.155 -10.363,6.464 -1.711,4.31 -2.123,9.728 -1.235,16.259 0.885,6.527 2.819,13.596 5.797,21.202 2.979,7.605 6.53,14.671 10.65,21.2 4.116,6.527 8.556,11.947 13.311,16.258 4.752,4.308 9.345,6.465 13.784,6.465 2.283,0 3.581,-1.332 3.897,-3.994 C 4.499,19.016 4.28,15.782 3.518,11.979 2.759,8.177 1.584,4.183 0,0" /></g><g
           transform="translate(954.6406,397.5968)"
           id="g52"><path
             id="path54"
             style="fill:#1f1f1f;fill-opacity:1;fill-rule:nonzero;stroke:none"
             d="m 0,0 h -749.169 c -65.469,0 -118.543,-53.074 -118.543,-118.544 v 0 c 0,-65.47 53.074,-118.543 118.543,-118.543 H 0 c 65.47,0 118.543,53.073 118.543,118.543 v 0 C 118.543,-53.074 65.47,0 0,0 m 0,-20.447 c 54.091,0 98.097,-44.006 98.097,-98.097 0,-54.091 -44.006,-98.097 -98.097,-98.097 h -749.169 c -54.091,0 -98.097,44.006 -98.097,98.097 0,54.091 44.006,98.097 98.097,98.097 z" /></g><g
           transform="translate(278.8638,102.0625)"
           id="g56"><path
             id="path58"
             style="fill:#000000;fill-opacity:1;fill-rule:nonzero;stroke:none"
             d="m 0,0 c -0.484,0 -0.847,0.163 -1.088,0.493 -0.241,0.326 -0.311,0.785 -0.207,1.371 l 5.079,32.13 H -8.395 c -0.484,0 -0.863,0.113 -1.139,0.336 -0.278,0.227 -0.415,0.526 -0.415,0.909 0,0.516 0.155,0.915 0.466,1.191 0.311,0.276 0.726,0.413 1.243,0.413 h 27.83 c 0.517,0 0.906,-0.093 1.166,-0.283 0.258,-0.19 0.388,-0.476 0.388,-0.855 0,-0.553 -0.155,-0.979 -0.466,-1.271 -0.311,-0.293 -0.726,-0.44 -1.243,-0.44 H 6.945 L 1.814,1.554 C 1.745,1.068 1.564,0.689 1.27,0.413 0.977,0.136 0.552,0 0,0" /></g><g
           transform="translate(303.738,101.956)"
           id="g60"><path
             id="path62"
             style="fill:#000000;fill-opacity:1;fill-rule:nonzero;stroke:none"
             d="M 0,0 C -1.797,0 -3.326,0.373 -4.586,1.115 -5.847,1.857 -6.737,2.988 -7.255,4.509 -7.774,6.03 -7.86,7.964 -7.514,10.313 l 2.228,14.044 c 0.104,0.519 0.303,0.908 0.597,1.168 0.293,0.259 0.681,0.389 1.165,0.389 0.519,0 0.907,-0.156 1.166,-0.469 0.26,-0.31 0.336,-0.759 0.233,-1.345 L -4.301,10.263 C -4.716,7.741 -4.508,5.847 -3.679,4.589 -2.85,3.325 -1.418,2.696 0.622,2.696 c 2.659,0 4.784,0.838 6.375,2.512 1.587,1.677 2.591,3.914 3.005,6.712 l 1.917,12.437 c 0.105,0.519 0.303,0.908 0.597,1.168 0.293,0.259 0.699,0.389 1.216,0.389 0.52,0 0.899,-0.15 1.142,-0.442 0.241,-0.293 0.309,-0.716 0.206,-1.268 L 11.504,1.607 C 11.366,0.606 10.796,0.106 9.794,0.106 9.276,0.106 8.905,0.253 8.681,0.546 8.456,0.839 8.378,1.278 8.448,1.867 L 9.225,6.739 9.742,6.426 C 8.914,4.389 7.652,2.809 5.96,1.687 4.266,0.562 2.28,0 0,0" /></g><g
           transform="translate(344.7824,101.956)"
           id="g64"><path
             id="path66"
             style="fill:#000000;fill-opacity:1;fill-rule:nonzero;stroke:none"
             d="m 0,0 c -1.416,0 -2.745,0.313 -3.99,0.935 -1.243,0.622 -2.255,1.494 -3.032,2.616 -0.777,1.121 -1.166,2.426 -1.166,3.913 0,1.761 0.501,3.189 1.504,4.277 1.002,1.088 2.556,1.873 4.664,2.356 2.107,0.482 4.8,0.725 8.083,0.725 h 4.199 L 9.899,12.49 h -3.11 c -2.937,0 -5.251,-0.147 -6.944,-0.44 -1.694,-0.293 -2.893,-0.802 -3.602,-1.527 -0.709,-0.726 -1.062,-1.694 -1.062,-2.902 0,-1.661 0.553,-2.922 1.658,-3.784 1.106,-0.865 2.349,-1.298 3.732,-1.298 1.348,0 2.607,0.303 3.782,0.909 1.175,0.602 2.176,1.484 3.007,2.642 0.828,1.158 1.381,2.566 1.657,4.223 l 0.985,6.323 c 0.379,2.21 0.121,3.877 -0.777,5.002 -0.899,1.121 -2.488,1.684 -4.767,1.684 -1.348,0 -2.618,-0.13 -3.809,-0.39 -1.193,-0.259 -2.341,-0.752 -3.448,-1.477 -0.344,-0.24 -0.682,-0.353 -1.01,-0.336 -0.328,0.016 -0.595,0.12 -0.803,0.313 -0.207,0.189 -0.328,0.422 -0.363,0.698 -0.035,0.277 0.026,0.569 0.181,0.882 0.157,0.31 0.441,0.569 0.855,0.776 1.278,0.795 2.669,1.364 4.172,1.71 1.504,0.346 2.997,0.519 4.483,0.519 2.176,0 3.93,-0.416 5.261,-1.244 1.329,-0.829 2.245,-2.014 2.746,-3.551 0.5,-1.538 0.579,-3.358 0.232,-5.468 L 10.727,1.661 C 10.658,1.141 10.476,0.752 10.183,0.493 9.889,0.233 9.484,0.106 8.965,0.106 8.516,0.106 8.18,0.26 7.955,0.572 7.731,0.882 7.652,1.331 7.722,1.92 L 8.448,6.533 8.914,6.273 C 8.464,4.855 7.774,3.681 6.84,2.749 5.909,1.814 4.845,1.125 3.654,0.676 2.463,0.226 1.245,0 0,0" /></g><g
           transform="translate(370.7964,101.956)"
           id="g68"><path
             id="path70"
             style="fill:#000000;fill-opacity:1;fill-rule:nonzero;stroke:none"
             d="M 0,0 C -2.315,0 -4.008,0.692 -5.078,2.073 -6.15,3.454 -6.461,5.511 -6.01,8.24 l 4.353,27.468 c 0.103,0.553 0.301,0.949 0.595,1.192 0.293,0.239 0.699,0.362 1.218,0.362 0.483,0 0.846,-0.156 1.089,-0.466 0.241,-0.312 0.311,-0.778 0.206,-1.401 L -2.85,8.24 C -3.195,6.273 -3.067,4.865 -2.461,4.017 -1.857,3.171 -0.795,2.749 0.725,2.749 c 0.52,0 0.916,0.033 1.194,0.103 0.276,0.07 0.499,0.103 0.673,0.103 0.207,0 0.37,-0.07 0.491,-0.206 C 3.205,2.609 3.265,2.333 3.265,1.92 3.265,1.434 3.137,1.045 2.877,0.752 2.617,0.459 2.263,0.26 1.814,0.156 1.572,0.123 1.27,0.087 0.907,0.053 0.544,0.02 0.241,0 0,0" /></g><g
           transform="translate(384.9965,133.9835)"
           id="g72"><path
             id="path74"
             style="fill:#000000;fill-opacity:1;fill-rule:nonzero;stroke:none"
             d="m 0,0 c -0.657,0 -1.158,0.163 -1.503,0.493 -0.346,0.329 -0.502,0.785 -0.467,1.374 0.035,0.792 0.286,1.398 0.752,1.814 0.466,0.412 1.097,0.622 1.892,0.622 0.655,0 1.156,-0.156 1.502,-0.469 C 2.521,3.524 2.677,3.058 2.642,2.436 2.607,1.677 2.358,1.078 1.892,0.649 1.424,0.216 0.794,0 0,0 m -5.132,-31.921 c -0.517,0 -0.888,0.153 -1.113,0.466 -0.224,0.309 -0.284,0.775 -0.181,1.398 l 3.524,22.336 c 0.103,0.553 0.301,0.959 0.596,1.218 0.293,0.26 0.699,0.39 1.218,0.39 0.482,0 0.845,-0.167 1.088,-0.493 0.241,-0.329 0.311,-0.789 0.206,-1.374 l -3.524,-22.387 c -0.068,-0.519 -0.258,-0.908 -0.569,-1.168 -0.311,-0.26 -0.725,-0.386 -1.245,-0.386" /></g><g
           transform="translate(398.105,101.956)"
           id="g76"><path
             id="path78"
             style="fill:#000000;fill-opacity:1;fill-rule:nonzero;stroke:none"
             d="m 0,0 c -1.416,0 -2.745,0.313 -3.99,0.935 -1.243,0.622 -2.255,1.494 -3.032,2.616 -0.777,1.121 -1.166,2.426 -1.166,3.913 0,1.761 0.501,3.189 1.504,4.277 1.002,1.088 2.556,1.873 4.664,2.356 2.107,0.482 4.8,0.725 8.083,0.725 h 4.199 L 9.899,12.49 h -3.11 c -2.937,0 -5.252,-0.147 -6.944,-0.44 -1.694,-0.293 -2.893,-0.802 -3.602,-1.527 -0.709,-0.726 -1.062,-1.694 -1.062,-2.902 0,-1.661 0.553,-2.922 1.658,-3.784 1.106,-0.865 2.349,-1.298 3.732,-1.298 1.348,0 2.607,0.303 3.782,0.909 1.175,0.602 2.176,1.484 3.007,2.642 0.828,1.158 1.381,2.566 1.657,4.223 l 0.985,6.323 c 0.379,2.21 0.121,3.877 -0.777,5.002 -0.899,1.121 -2.488,1.684 -4.767,1.684 -1.348,0 -2.618,-0.13 -3.809,-0.39 -1.193,-0.259 -2.341,-0.752 -3.448,-1.477 -0.344,-0.24 -0.682,-0.353 -1.01,-0.336 -0.328,0.016 -0.595,0.12 -0.803,0.313 -0.207,0.189 -0.328,0.422 -0.363,0.698 -0.035,0.277 0.026,0.569 0.181,0.882 0.157,0.31 0.441,0.569 0.855,0.776 1.278,0.795 2.669,1.364 4.172,1.71 1.504,0.346 2.997,0.519 4.483,0.519 2.176,0 3.93,-0.416 5.261,-1.244 1.329,-0.829 2.245,-2.014 2.746,-3.551 0.5,-1.538 0.579,-3.358 0.232,-5.468 L 10.727,1.661 C 10.658,1.141 10.476,0.752 10.183,0.493 9.889,0.233 9.484,0.106 8.965,0.106 8.516,0.106 8.18,0.26 7.955,0.572 7.731,0.882 7.652,1.331 7.722,1.92 L 8.448,6.533 8.914,6.273 C 8.464,4.855 7.774,3.681 6.84,2.749 5.909,1.814 4.845,1.125 3.654,0.676 2.463,0.226 1.245,0 0,0" /></g><g
           transform="translate(427.7464,104.6016)"
           id="g80"><path
             id="path82"
             style="fill:#000000;fill-opacity:1;fill-rule:nonzero;stroke:none"
             d="m 0,0 c 2.073,0 3.817,0.569 5.235,1.707 1.416,1.142 2.496,2.663 3.239,4.563 0.743,1.9 1.114,3.99 1.114,6.269 0,2.696 -0.656,4.726 -1.969,6.09 -1.314,1.365 -3.128,2.047 -5.441,2.047 -2.04,0 -3.775,-0.569 -5.21,-1.71 -1.432,-1.142 -2.512,-2.653 -3.238,-4.533 -0.725,-1.884 -1.088,-3.983 -1.088,-6.3 0,-2.659 0.647,-4.679 1.944,-6.06 C -4.12,0.689 -2.315,0 0,0 m -0.829,-2.646 c -1.935,0 -3.635,0.433 -5.105,1.298 -1.467,0.862 -2.609,2.097 -3.419,3.704 -0.812,1.608 -1.218,3.514 -1.218,5.727 0,2.729 0.474,5.252 1.424,7.565 0.95,2.316 2.366,4.179 4.25,5.597 1.884,1.418 4.172,2.127 6.867,2.127 2.073,0 3.92,-0.529 5.544,-1.581 1.624,-1.055 2.729,-2.689 3.318,-4.899 H 10.47 l 2.59,16.22 c 0.068,0.52 0.26,0.899 0.569,1.142 0.311,0.239 0.727,0.363 1.245,0.363 0.483,0 0.837,-0.157 1.062,-0.466 0.224,-0.313 0.286,-0.762 0.181,-1.348 L 10.781,-0.985 C 10.711,-1.471 10.529,-1.85 10.237,-2.127 9.942,-2.403 9.518,-2.539 8.965,-2.539 c -0.484,0 -0.837,0.163 -1.061,0.492 -0.225,0.326 -0.285,0.786 -0.182,1.371 L 8.448,3.731 8.914,3.368 C 8.015,1.534 6.737,0.077 5.08,-1.012 3.421,-2.1 1.453,-2.646 -0.829,-2.646" /></g><g
           transform="translate(457.5442,104.6016)"
           id="g84"><path
             id="path86"
             style="fill:#000000;fill-opacity:1;fill-rule:nonzero;stroke:none"
             d="m 0,0 c 2.073,0 3.817,0.569 5.235,1.707 1.416,1.142 2.496,2.663 3.239,4.563 0.743,1.9 1.114,3.99 1.114,6.269 0,2.696 -0.656,4.726 -1.969,6.09 -1.314,1.365 -3.128,2.047 -5.441,2.047 -2.04,0 -3.775,-0.569 -5.21,-1.71 -1.432,-1.142 -2.512,-2.653 -3.238,-4.533 -0.725,-1.884 -1.088,-3.983 -1.088,-6.3 0,-2.659 0.647,-4.679 1.944,-6.06 C -4.12,0.689 -2.315,0 0,0 m -0.103,-2.646 c -2.142,0 -3.999,0.433 -5.571,1.298 -1.572,0.862 -2.78,2.117 -3.627,3.757 -0.847,1.641 -1.27,3.601 -1.27,5.881 0,2.04 0.285,3.973 0.855,5.804 0.569,1.83 1.416,3.437 2.539,4.822 1.122,1.381 2.48,2.469 4.069,3.264 1.589,0.792 3.403,1.192 5.441,1.192 2.141,0 3.998,-0.443 5.571,-1.321 1.572,-0.882 2.78,-2.144 3.627,-3.784 0.847,-1.641 1.27,-3.584 1.27,-5.831 0,-2.073 -0.293,-4.016 -0.881,-5.83 C 11.331,4.792 10.478,3.185 9.355,1.787 8.232,0.386 6.884,-0.702 5.313,-1.478 3.741,-2.256 1.935,-2.646 -0.103,-2.646" /></g><g
           transform="translate(499.6252,101.956)"
           id="g88"><path
             id="path90"
             style="fill:#000000;fill-opacity:1;fill-rule:nonzero;stroke:none"
             d="m 0,0 c -2.315,0 -4.318,0.443 -6.01,1.324 -1.694,0.879 -2.99,2.13 -3.887,3.758 -0.899,1.62 -1.348,3.574 -1.348,5.853 0,2.696 0.518,5.182 1.554,7.465 1.037,2.279 2.548,4.12 4.534,5.517 1.987,1.401 4.345,2.1 7.076,2.1 1.933,0 3.549,-0.346 4.845,-1.038 1.294,-0.692 2.323,-1.614 3.083,-2.772 0.759,-1.158 1.261,-2.479 1.503,-3.964 0.241,-1.487 0.259,-2.988 0.051,-4.509 -0.07,-0.552 -0.206,-0.925 -0.414,-1.115 -0.208,-0.189 -0.536,-0.283 -0.985,-0.283 H -8.914 l 0.363,2.33 H 9.639 L 8.654,13.994 c 0.276,1.76 0.225,3.351 -0.155,4.769 -0.381,1.414 -1.096,2.555 -2.149,3.417 -1.055,0.866 -2.55,1.298 -4.483,1.298 -2.005,0 -3.681,-0.459 -5.027,-1.374 -1.348,-0.915 -2.393,-2.083 -3.136,-3.498 -0.742,-1.418 -1.253,-2.868 -1.53,-4.353 L -7.98,13.165 C -8.498,10.02 -8.04,7.481 -6.607,5.548 -5.173,3.611 -2.953,2.646 0.052,2.646 c 1.382,0 2.66,0.169 3.835,0.515 1.175,0.347 2.315,0.899 3.421,1.661 0.414,0.276 0.769,0.413 1.062,0.413 0.292,0 0.544,-0.087 0.752,-0.26 C 9.328,4.802 9.458,4.589 9.509,4.33 9.563,4.07 9.518,3.784 9.381,3.474 9.242,3.161 9,2.885 8.654,2.646 7.514,1.78 6.158,1.125 4.587,0.676 3.015,0.226 1.486,0 0,0" /></g><g
           transform="translate(516.9868,102.0625)"
           id="g92"><path
             id="path94"
             style="fill:#000000;fill-opacity:1;fill-rule:nonzero;stroke:none"
             d="M 0,0 C -0.519,0 -0.89,0.173 -1.115,0.516 -1.339,0.862 -1.399,1.328 -1.296,1.917 L 2.228,24.2 c 0.103,0.553 0.301,0.959 0.596,1.218 0.293,0.26 0.699,0.39 1.218,0.39 0.447,0 0.785,-0.157 1.01,-0.47 0.224,-0.309 0.284,-0.758 0.181,-1.344 L 4.508,19.172 3.99,19.485 c 0.862,2.003 2.15,3.574 3.86,4.715 1.711,1.138 3.758,1.711 6.142,1.711 1.865,0 3.428,-0.383 4.689,-1.142 1.261,-0.758 2.16,-1.9 2.696,-3.421 0.534,-1.521 0.612,-3.437 0.233,-5.75 L 19.382,1.501 C 19.312,1.018 19.122,0.646 18.811,0.386 18.5,0.126 18.085,0 17.568,0 17.049,0 16.678,0.163 16.453,0.493 16.228,0.819 16.168,1.278 16.272,1.864 l 2.176,13.734 c 0.414,2.556 0.19,4.456 -0.674,5.7 -0.863,1.245 -2.331,1.864 -4.404,1.864 -2.764,0 -4.949,-0.829 -6.556,-2.486 C 5.208,19.019 4.18,16.789 3.731,13.99 L 1.814,1.554 C 1.639,0.516 1.035,0 0,0" /></g><g
           transform="translate(564.7136,101.956)"
           id="g96"><path
             id="path98"
             style="fill:#000000;fill-opacity:1;fill-rule:nonzero;stroke:none"
             d="M 0,0 C -2.315,0 -4.008,0.692 -5.078,2.073 -6.15,3.454 -6.461,5.511 -6.01,8.24 l 4.353,27.468 c 0.103,0.553 0.301,0.949 0.595,1.192 0.293,0.239 0.699,0.362 1.218,0.362 0.483,0 0.846,-0.156 1.089,-0.466 0.241,-0.312 0.311,-0.778 0.206,-1.401 L -2.85,8.24 C -3.195,6.273 -3.067,4.865 -2.461,4.017 -1.857,3.171 -0.795,2.749 0.725,2.749 c 0.52,0 0.916,0.033 1.194,0.103 0.276,0.07 0.499,0.103 0.673,0.103 0.207,0 0.37,-0.07 0.491,-0.206 C 3.205,2.609 3.265,2.333 3.265,1.92 3.265,1.434 3.137,1.045 2.877,0.752 2.617,0.459 2.263,0.26 1.814,0.156 1.572,0.123 1.27,0.087 0.907,0.053 0.544,0.02 0.241,0 0,0" /></g><g
           transform="translate(580.5193,101.956)"
           id="g100"><path
             id="path102"
             style="fill:#000000;fill-opacity:1;fill-rule:nonzero;stroke:none"
             d="m 0,0 c -1.416,0 -2.746,0.313 -3.99,0.935 -1.243,0.622 -2.255,1.494 -3.032,2.616 -0.777,1.121 -1.166,2.426 -1.166,3.913 0,1.761 0.501,3.189 1.504,4.277 1.002,1.088 2.556,1.873 4.664,2.356 2.106,0.482 4.8,0.725 8.083,0.725 h 4.198 L 9.899,12.49 h -3.11 c -2.937,0 -5.252,-0.147 -6.944,-0.44 -1.694,-0.293 -2.893,-0.802 -3.602,-1.527 -0.709,-0.726 -1.062,-1.694 -1.062,-2.902 0,-1.661 0.553,-2.922 1.658,-3.784 1.106,-0.865 2.349,-1.298 3.732,-1.298 1.348,0 2.607,0.303 3.782,0.909 1.175,0.602 2.176,1.484 3.007,2.642 0.828,1.158 1.381,2.566 1.657,4.223 l 0.985,6.323 c 0.379,2.21 0.121,3.877 -0.777,5.002 -0.899,1.121 -2.488,1.684 -4.767,1.684 -1.348,0 -2.618,-0.13 -3.809,-0.39 -1.193,-0.259 -2.341,-0.752 -3.448,-1.477 -0.344,-0.24 -0.682,-0.353 -1.01,-0.336 -0.328,0.016 -0.595,0.12 -0.803,0.313 -0.207,0.189 -0.328,0.422 -0.363,0.698 -0.035,0.277 0.026,0.569 0.181,0.882 0.157,0.31 0.441,0.569 0.855,0.776 1.278,0.795 2.669,1.364 4.172,1.71 1.504,0.346 2.997,0.519 4.483,0.519 2.176,0 3.93,-0.416 5.261,-1.244 1.329,-0.829 2.245,-2.014 2.745,-3.551 0.501,-1.538 0.58,-3.358 0.233,-5.468 L 10.727,1.661 C 10.658,1.141 10.476,0.752 10.183,0.493 9.889,0.233 9.484,0.106 8.965,0.106 8.516,0.106 8.18,0.26 7.955,0.572 7.731,0.882 7.652,1.331 7.722,1.92 L 8.448,6.533 8.914,6.273 C 8.464,4.855 7.774,3.681 6.84,2.749 5.909,1.814 4.845,1.125 3.654,0.676 2.463,0.226 1.245,0 0,0" /></g><g
           transform="translate(623.2742,105.6366)"
           id="g104"><path
             id="path106"
             style="fill:#000000;fill-opacity:1;fill-rule:nonzero;stroke:none"
             d="m 0,0 c 2.107,0 3.877,0.562 5.311,1.684 1.433,1.121 2.521,2.599 3.265,4.433 0.742,1.83 1.115,3.797 1.115,5.907 0,2.416 -0.657,4.293 -1.97,5.62 -1.313,1.332 -3.143,1.997 -5.493,1.997 -2.073,0 -3.835,-0.562 -5.286,-1.684 -1.451,-1.125 -2.539,-2.592 -3.265,-4.406 -0.725,-1.814 -1.088,-3.774 -1.088,-5.88 0,-2.453 0.647,-4.346 1.943,-5.674 C -4.173,0.666 -2.351,0 0,0 m -0.468,-13.009 c -1.968,0 -3.8,0.287 -5.492,0.856 -1.694,0.572 -3.232,1.341 -4.613,2.306 -0.311,0.173 -0.5,0.399 -0.57,0.675 -0.069,0.277 -0.06,0.553 0.026,0.829 0.087,0.276 0.233,0.509 0.441,0.699 0.207,0.19 0.458,0.303 0.751,0.336 0.294,0.037 0.597,-0.05 0.906,-0.26 1.278,-0.895 2.566,-1.587 3.862,-2.07 1.295,-0.485 2.773,-0.725 4.432,-0.725 2.279,0 4.136,0.596 5.57,1.787 1.433,1.191 2.358,3.032 2.773,5.518 L 8.654,3.421 9.068,3.368 C 8.205,1.504 6.925,0.027 5.233,-1.062 3.541,-2.15 1.571,-2.696 -0.674,-2.696 c -2.005,0 -3.749,0.423 -5.235,1.272 -1.486,0.845 -2.642,2.036 -3.472,3.574 -0.829,1.537 -1.243,3.344 -1.243,5.418 0,1.933 0.276,3.78 0.828,5.544 0.553,1.76 1.365,3.334 2.436,4.715 1.07,1.382 2.393,2.48 3.966,3.292 1.57,0.812 3.376,1.218 5.414,1.218 2.107,0 3.974,-0.529 5.598,-1.581 1.624,-1.055 2.728,-2.689 3.316,-4.899 l -0.466,-0.362 0.829,5.181 c 0.103,0.519 0.302,0.909 0.595,1.168 0.293,0.26 0.701,0.39 1.218,0.39 0.484,0 0.837,-0.167 1.063,-0.493 0.223,-0.329 0.285,-0.789 0.182,-1.374 L 10.674,-2.902 C 10.122,-6.286 8.93,-8.819 7.098,-10.493 5.268,-12.17 2.745,-13.009 -0.468,-13.009" /></g><g
           transform="translate(650.5828,101.956)"
           id="g108"><path
             id="path110"
             style="fill:#000000;fill-opacity:1;fill-rule:nonzero;stroke:none"
             d="m 0,0 c -1.416,0 -2.745,0.313 -3.99,0.935 -1.243,0.622 -2.255,1.494 -3.032,2.616 -0.777,1.121 -1.166,2.426 -1.166,3.913 0,1.761 0.501,3.189 1.504,4.277 1.002,1.088 2.556,1.873 4.664,2.356 2.106,0.482 4.8,0.725 8.083,0.725 h 4.198 L 9.899,12.49 h -3.11 c -2.937,0 -5.252,-0.147 -6.944,-0.44 -1.694,-0.293 -2.893,-0.802 -3.602,-1.527 -0.709,-0.726 -1.062,-1.694 -1.062,-2.902 0,-1.661 0.553,-2.922 1.658,-3.784 1.106,-0.865 2.349,-1.298 3.732,-1.298 1.348,0 2.607,0.303 3.782,0.909 1.175,0.602 2.176,1.484 3.007,2.642 0.828,1.158 1.381,2.566 1.657,4.223 l 0.985,6.323 c 0.379,2.21 0.121,3.877 -0.777,5.002 -0.899,1.121 -2.488,1.684 -4.767,1.684 -1.348,0 -2.618,-0.13 -3.809,-0.39 -1.193,-0.259 -2.341,-0.752 -3.448,-1.477 -0.344,-0.24 -0.682,-0.353 -1.01,-0.336 -0.328,0.016 -0.595,0.12 -0.803,0.313 -0.207,0.189 -0.328,0.422 -0.363,0.698 -0.035,0.277 0.026,0.569 0.181,0.882 0.157,0.31 0.441,0.569 0.855,0.776 1.278,0.795 2.669,1.364 4.172,1.71 1.504,0.346 2.997,0.519 4.483,0.519 2.176,0 3.93,-0.416 5.261,-1.244 1.329,-0.829 2.245,-2.014 2.745,-3.551 0.501,-1.538 0.58,-3.358 0.233,-5.468 L 10.727,1.661 C 10.658,1.141 10.476,0.752 10.183,0.493 9.889,0.233 9.484,0.106 8.965,0.106 8.516,0.106 8.18,0.26 7.955,0.572 7.731,0.882 7.652,1.331 7.722,1.92 L 8.448,6.533 8.914,6.273 C 8.464,4.855 7.774,3.681 6.84,2.749 5.909,1.814 4.845,1.125 3.654,0.676 2.463,0.226 1.245,0 0,0" /></g><g
           transform="translate(678.6185,101.956)"
           id="g112"><path
             id="path114"
             style="fill:#000000;fill-opacity:1;fill-rule:nonzero;stroke:none"
             d="m 0,0 c -1.659,0 -3.231,0.21 -4.716,0.622 -1.485,0.416 -2.765,0.985 -3.835,1.711 -0.346,0.173 -0.569,0.416 -0.674,0.725 -0.103,0.313 -0.13,0.606 -0.076,0.882 0.051,0.276 0.181,0.509 0.387,0.699 0.208,0.19 0.458,0.286 0.752,0.286 0.293,0 0.629,-0.103 1.01,-0.313 1.07,-0.725 2.22,-1.241 3.446,-1.554 1.227,-0.309 2.515,-0.466 3.861,-0.466 1.97,0 3.524,0.396 4.664,1.192 1.141,0.795 1.71,1.933 1.71,3.421 0,0.965 -0.319,1.77 -0.958,2.409 -0.639,0.639 -1.529,1.098 -2.669,1.375 l -4.975,1.241 c -1.624,0.416 -2.911,1.168 -3.861,2.256 -0.95,1.088 -1.426,2.393 -1.426,3.914 0,1.484 0.406,2.799 1.218,3.937 0.812,1.141 1.961,2.04 3.446,2.695 1.486,0.656 3.197,0.985 5.132,0.985 1.484,0 2.919,-0.226 4.301,-0.675 1.381,-0.449 2.521,-1.055 3.42,-1.814 0.346,-0.276 0.579,-0.562 0.7,-0.855 0.12,-0.293 0.147,-0.579 0.077,-0.855 -0.068,-0.277 -0.207,-0.493 -0.415,-0.646 -0.206,-0.156 -0.457,-0.233 -0.75,-0.233 -0.295,0 -0.614,0.136 -0.958,0.413 -0.866,0.692 -1.849,1.201 -2.956,1.53 -1.104,0.327 -2.279,0.493 -3.524,0.493 -2.003,0 -3.609,-0.433 -4.819,-1.298 -1.209,-0.862 -1.813,-2.056 -1.813,-3.574 0,-0.899 0.284,-1.677 0.855,-2.333 0.569,-0.655 1.424,-1.141 2.566,-1.451 L 4.093,13.425 C 5.82,12.975 7.178,12.257 8.162,11.272 9.147,10.29 9.639,9.019 9.639,7.464 9.639,5.148 8.757,3.325 6.995,1.997 5.235,0.666 2.902,0 0,0" /></g><g
           transform="translate(703.546,101.956)"
           id="g116"><path
             id="path118"
             style="fill:#000000;fill-opacity:1;fill-rule:nonzero;stroke:none"
             d="M 0,0 C -1.832,0 -3.343,0.356 -4.534,1.065 -5.726,1.77 -6.556,2.775 -7.022,4.07 -7.488,5.365 -7.584,6.912 -7.306,8.709 l 2.279,14.303 h -3.627 c -0.449,0 -0.812,0.093 -1.088,0.283 -0.277,0.19 -0.415,0.459 -0.415,0.805 0,0.483 0.163,0.846 0.493,1.089 0.328,0.239 0.734,0.362 1.218,0.362 h 3.782 l 1.088,6.58 c 0.07,0.519 0.26,0.898 0.571,1.141 0.311,0.24 0.707,0.363 1.191,0.363 0.519,0 0.889,-0.157 1.115,-0.466 0.223,-0.313 0.301,-0.762 0.233,-1.348 l -1.037,-6.27 h 6.789 c 0.483,0 0.856,-0.086 1.113,-0.259 0.26,-0.173 0.39,-0.433 0.39,-0.779 0,-0.482 -0.147,-0.855 -0.441,-1.115 C 6.055,23.139 5.649,23.012 5.13,23.012 H -1.917 L -4.093,9.122 C -4.439,6.875 -4.215,5.251 -3.419,4.25 -2.626,3.248 -1.348,2.749 0.414,2.749 c 0.761,0 1.356,0.076 1.789,0.233 0.431,0.156 0.785,0.233 1.062,0.233 0.276,0 0.484,-0.077 0.622,-0.233 C 4.025,2.825 4.095,2.559 4.095,2.176 4.095,1.661 4.017,1.278 3.86,1.038 3.706,0.795 3.454,0.606 3.11,0.469 2.729,0.329 2.236,0.216 1.632,0.13 1.028,0.047 0.484,0 0,0" /></g><g
           transform="translate(712.8224,102.0625)"
           id="g120"><path
             id="path122"
             style="fill:#000000;fill-opacity:1;fill-rule:nonzero;stroke:none"
             d="M 0,0 C -0.519,0 -0.89,0.153 -1.115,0.466 -1.339,0.775 -1.399,1.225 -1.296,1.814 L 2.228,24.25 c 0.103,0.519 0.301,0.909 0.596,1.168 0.293,0.26 0.682,0.39 1.166,0.39 0.483,0 0.845,-0.167 1.088,-0.493 C 5.32,24.986 5.39,24.526 5.285,23.941 L 4.611,19.485 H 4.042 c 0.725,2.073 1.968,3.66 3.73,4.765 1.762,1.108 3.698,1.678 5.804,1.711 0.692,0.036 1.158,-0.033 1.399,-0.207 0.242,-0.173 0.363,-0.482 0.363,-0.931 0,-0.553 -0.128,-0.952 -0.387,-1.192 -0.26,-0.243 -0.701,-0.399 -1.322,-0.469 l -0.83,-0.05 C 9.862,22.869 7.737,21.987 6.424,20.47 5.112,18.949 4.266,16.962 3.885,14.51 L 1.814,1.501 C 1.744,1.018 1.554,0.646 1.243,0.386 0.932,0.126 0.518,0 0,0" /></g><g
           transform="translate(739.5087,104.6016)"
           id="g124"><path
             id="path126"
             style="fill:#000000;fill-opacity:1;fill-rule:nonzero;stroke:none"
             d="m 0,0 c 2.073,0 3.817,0.569 5.235,1.707 1.416,1.142 2.496,2.663 3.239,4.563 0.743,1.9 1.114,3.99 1.114,6.269 0,2.696 -0.656,4.726 -1.969,6.09 -1.314,1.365 -3.128,2.047 -5.441,2.047 -2.04,0 -3.775,-0.569 -5.21,-1.71 -1.432,-1.142 -2.512,-2.653 -3.238,-4.533 -0.725,-1.884 -1.088,-3.983 -1.088,-6.3 0,-2.659 0.647,-4.679 1.944,-6.06 C -4.12,0.689 -2.315,0 0,0 m -0.103,-2.646 c -2.142,0 -3.999,0.433 -5.571,1.298 -1.572,0.862 -2.78,2.117 -3.627,3.757 -0.847,1.641 -1.27,3.601 -1.27,5.881 0,2.04 0.285,3.973 0.855,5.804 0.569,1.83 1.416,3.437 2.539,4.822 1.122,1.381 2.48,2.469 4.069,3.264 1.589,0.792 3.402,1.192 5.441,1.192 2.141,0 3.998,-0.443 5.571,-1.321 1.572,-0.882 2.78,-2.144 3.627,-3.784 0.847,-1.641 1.27,-3.584 1.27,-5.831 0,-2.073 -0.293,-4.016 -0.881,-5.83 C 11.331,4.792 10.478,3.185 9.355,1.787 8.232,0.386 6.884,-0.702 5.313,-1.478 3.741,-2.256 1.935,-2.646 -0.103,-2.646" /></g><g
           transform="translate(758.5808,102.0625)"
           id="g128"><path
             id="path130"
             style="fill:#000000;fill-opacity:1;fill-rule:nonzero;stroke:none"
             d="M 0,0 C -0.519,0 -0.89,0.173 -1.115,0.516 -1.339,0.862 -1.399,1.328 -1.296,1.917 L 2.228,24.2 c 0.103,0.553 0.301,0.959 0.596,1.218 0.293,0.26 0.699,0.39 1.218,0.39 0.447,0 0.785,-0.157 1.01,-0.47 0.224,-0.309 0.284,-0.758 0.181,-1.344 L 4.508,19.172 3.99,19.485 c 0.862,2.003 2.15,3.574 3.86,4.715 1.711,1.138 3.758,1.711 6.142,1.711 1.865,0 3.428,-0.383 4.689,-1.142 1.261,-0.758 2.16,-1.9 2.696,-3.421 0.534,-1.521 0.612,-3.437 0.233,-5.75 L 19.382,1.501 C 19.312,1.018 19.122,0.646 18.811,0.386 18.5,0.126 18.085,0 17.568,0 17.049,0 16.678,0.163 16.453,0.493 16.228,0.819 16.168,1.278 16.272,1.864 l 2.176,13.734 c 0.414,2.556 0.19,4.456 -0.674,5.7 -0.863,1.245 -2.331,1.864 -4.404,1.864 -2.764,0 -4.949,-0.829 -6.556,-2.486 C 5.208,19.019 4.18,16.789 3.731,13.99 L 1.814,1.554 C 1.639,0.516 1.035,0 0,0" /></g><g
           transform="translate(796.8763,104.6016)"
           id="g132"><path
             id="path134"
             style="fill:#000000;fill-opacity:1;fill-rule:nonzero;stroke:none"
             d="m 0,0 c 2.073,0 3.817,0.569 5.235,1.707 1.416,1.142 2.496,2.663 3.239,4.563 0.743,1.9 1.114,3.99 1.114,6.269 0,2.696 -0.656,4.726 -1.969,6.09 -1.314,1.365 -3.128,2.047 -5.441,2.047 -2.04,0 -3.775,-0.569 -5.21,-1.71 -1.432,-1.142 -2.512,-2.653 -3.238,-4.533 -0.725,-1.884 -1.088,-3.983 -1.088,-6.3 0,-2.659 0.647,-4.679 1.944,-6.06 C -4.12,0.689 -2.315,0 0,0 m -0.103,-2.646 c -2.142,0 -3.999,0.433 -5.571,1.298 -1.572,0.862 -2.78,2.117 -3.627,3.757 -0.847,1.641 -1.27,3.601 -1.27,5.881 0,2.04 0.285,3.973 0.855,5.804 0.569,1.83 1.416,3.437 2.539,4.822 1.122,1.381 2.48,2.469 4.069,3.264 1.589,0.792 3.403,1.192 5.441,1.192 2.141,0 3.998,-0.443 5.571,-1.321 1.572,-0.882 2.78,-2.144 3.627,-3.784 0.847,-1.641 1.27,-3.584 1.27,-5.831 0,-2.073 -0.293,-4.016 -0.881,-5.83 C 11.331,4.792 10.478,3.185 9.355,1.787 8.232,0.386 6.884,-0.702 5.313,-1.478 3.741,-2.256 1.935,-2.646 -0.103,-2.646" /></g><g
           transform="translate(816,102.0625)"
           id="g136"><path
             id="path138"
             style="fill:#000000;fill-opacity:1;fill-rule:nonzero;stroke:none"
             d="M 0,0 C -0.519,0 -0.89,0.153 -1.115,0.466 -1.339,0.775 -1.399,1.225 -1.296,1.814 L 2.228,24.25 c 0.103,0.519 0.301,0.909 0.596,1.168 0.293,0.26 0.7,0.39 1.218,0.39 0.449,0 0.785,-0.173 1.01,-0.519 0.224,-0.347 0.303,-0.796 0.233,-1.348 L 4.508,19.122 4.042,19.431 c 0.898,2.074 2.125,3.671 3.679,4.796 1.555,1.121 3.351,1.684 5.389,1.684 2.038,0 3.687,-0.563 4.95,-1.684 1.26,-1.125 2.012,-2.756 2.253,-4.899 l -0.62,0.103 c 0.793,2.004 2.011,3.585 3.652,4.743 1.641,1.158 3.584,1.737 5.831,1.737 1.762,0 3.239,-0.383 4.431,-1.142 1.191,-0.758 2.03,-1.9 2.514,-3.421 0.482,-1.521 0.534,-3.454 0.155,-5.803 L 34.099,1.501 C 34.029,1.018 33.84,0.646 33.528,0.386 33.217,0.126 32.803,0 32.285,0 31.766,0 31.395,0.153 31.171,0.466 30.946,0.775 30.868,1.225 30.938,1.814 l 2.176,13.99 c 0.379,2.489 0.198,4.336 -0.544,5.544 -0.744,1.212 -2.098,1.814 -4.068,1.814 -2.28,0 -4.172,-0.812 -5.674,-2.436 -1.503,-1.624 -2.48,-3.867 -2.929,-6.736 L 17.931,1.501 C 17.896,1.018 17.714,0.646 17.387,0.386 17.057,0.126 16.634,0 16.117,0 15.598,0 15.227,0.153 15.002,0.466 14.777,0.775 14.718,1.225 14.821,1.814 l 2.228,13.99 c 0.381,2.489 0.189,4.336 -0.569,5.544 -0.761,1.212 -2.109,1.814 -4.044,1.814 -2.279,0 -4.171,-0.812 -5.674,-2.436 C 5.26,19.102 4.266,16.859 3.782,13.99 L 1.865,1.501 C 1.692,0.499 1.07,0 0,0" /></g><g
           transform="translate(865.7485,131.0816)"
           id="g140"><path
             id="path142"
             style="fill:#000000;fill-opacity:1;fill-rule:nonzero;stroke:none"
             d="m 0,0 c -0.208,-0.309 -0.458,-0.483 -0.752,-0.519 -0.293,-0.033 -0.544,0.016 -0.751,0.156 -0.208,0.137 -0.337,0.336 -0.389,0.596 -0.051,0.26 0.027,0.562 0.233,0.908 l 5.857,8.706 c 0.276,0.413 0.578,0.682 0.907,0.802 0.328,0.12 0.639,0.147 0.932,0.08 C 6.331,10.659 6.573,10.503 6.762,10.26 6.952,10.02 7.048,9.734 7.048,9.405 7.048,9.078 6.91,8.739 6.634,8.396 Z m -5.96,-29.019 c -0.518,0 -0.889,0.153 -1.113,0.466 -0.225,0.309 -0.285,0.775 -0.182,1.398 l 3.524,22.336 c 0.104,0.553 0.302,0.959 0.596,1.218 0.293,0.26 0.699,0.39 1.218,0.39 0.483,0 0.845,-0.167 1.088,-0.493 0.242,-0.329 0.311,-0.789 0.207,-1.374 l -3.525,-22.387 c -0.068,-0.519 -0.257,-0.908 -0.569,-1.168 -0.311,-0.26 -0.725,-0.386 -1.244,-0.386" /></g><g
           transform="translate(878.03,101.956)"
           id="g144"><path
             id="path146"
             style="fill:#000000;fill-opacity:1;fill-rule:nonzero;stroke:none"
             d="m 0,0 c -1.416,0 -2.746,0.313 -3.99,0.935 -1.243,0.622 -2.255,1.494 -3.032,2.616 -0.777,1.121 -1.166,2.426 -1.166,3.913 0,1.761 0.501,3.189 1.504,4.277 1.002,1.088 2.556,1.873 4.664,2.356 2.106,0.482 4.8,0.725 8.083,0.725 h 4.198 L 9.899,12.49 h -3.11 c -2.937,0 -5.252,-0.147 -6.944,-0.44 -1.694,-0.293 -2.893,-0.802 -3.602,-1.527 -0.709,-0.726 -1.062,-1.694 -1.062,-2.902 0,-1.661 0.553,-2.922 1.658,-3.784 1.106,-0.865 2.349,-1.298 3.732,-1.298 1.348,0 2.607,0.303 3.782,0.909 1.175,0.602 2.176,1.484 3.007,2.642 0.828,1.158 1.381,2.566 1.657,4.223 l 0.985,6.323 c 0.379,2.21 0.121,3.877 -0.777,5.002 -0.899,1.121 -2.488,1.684 -4.767,1.684 -1.348,0 -2.618,-0.13 -3.809,-0.39 -1.193,-0.259 -2.341,-0.752 -3.448,-1.477 -0.344,-0.24 -0.682,-0.353 -1.01,-0.336 -0.328,0.016 -0.595,0.12 -0.803,0.313 -0.207,0.189 -0.328,0.422 -0.363,0.698 -0.035,0.277 0.026,0.569 0.181,0.882 0.157,0.31 0.441,0.569 0.855,0.776 1.278,0.795 2.669,1.364 4.172,1.71 1.504,0.346 2.997,0.519 4.483,0.519 2.176,0 3.93,-0.416 5.261,-1.244 1.329,-0.829 2.245,-2.014 2.745,-3.551 0.501,-1.538 0.58,-3.358 0.233,-5.468 L 10.727,1.661 C 10.658,1.141 10.476,0.752 10.183,0.493 9.889,0.233 9.484,0.106 8.965,0.106 8.516,0.106 8.18,0.26 7.955,0.572 7.731,0.882 7.652,1.331 7.722,1.92 L 8.448,6.533 8.914,6.273 C 8.464,4.855 7.774,3.681 6.84,2.749 5.909,1.814 4.845,1.125 3.654,0.676 2.463,0.226 1.245,0 0,0" /></g></g></g></g></svg>